<svg xmlns="http://www.w3.org/2000/svg" xmlns:xlink="http://www.w3.org/1999/xlink" width="48px" height="39px" viewBox="0 0 48 39"><title>free-img</title><g id="Page-1" stroke="none" stroke-width="1" fill="none" fill-rule="evenodd"><g id="Landingpage" transform="translate(-368.000000, -1191.000000)" fill="#FF5100" fill-rule="nonzero"><path d="M407.088235,1211 L408.485294,1213.79412 L413.514706,1213.79412 C414.598516,1213.79412 415.470588,1214.66619 415.470588,1215.75 L415.470588,1215.75 L415.470588,1228.04412 C415.470588,1229.12793 414.598516,1230 413.514706,1230 L413.514706,1230 L393.955882,1230 C392.872072,1230 392,1229.12793 392,1228.04412 L392,1228.04412 L392,1215.75 C392,1214.66619 392.872072,1213.79412 393.955882,1213.79412 L393.955882,1213.79412 L398.985294,1213.79412 L400.382353,1211 L407.088235,1211 Z M403.735294,1216.86765 C400.95755,1216.86765 398.705882,1219.11931 398.705882,1221.89706 C398.705882,1224.6748 400.95755,1226.92647 403.735294,1226.92647 C406.513038,1226.92647 408.764706,1224.6748 408.764706,1221.89706 C408.764706,1219.11931 406.513038,1216.86765 403.735294,1216.86765 Z M389.998158,1192.26373 C390.750375,1192.64715 391.374763,1193.23801 391.798947,1193.96394 L391.920123,1194.1857 L396.042478,1202.27321 C396.165825,1202.5153 396.344415,1202.66144 396.524029,1202.70536 C396.641054,1202.7343 396.763257,1202.71831 396.883573,1202.65175 L396.973346,1202.59227 L400.950375,1199.49657 C402.86797,1198.00393 405.632515,1198.34842 407.125159,1200.26601 C407.805395,1201.13991 408.129303,1202.23565 408.0379,1203.33355 L408.011935,1203.56876 L407.286124,1208.84095 L402.332842,1208.15905 L402.857,1204.348 L400.040591,1206.54094 C398.762609,1207.53159 397.150026,1207.92443 395.589614,1207.61824 L395.330095,1207.56072 C393.798659,1207.18628 392.501999,1206.17152 391.714152,1204.77901 L391.587603,1204.54347 L388,1197.505 L384.412541,1204.54319 C383.681848,1205.97716 382.42741,1207.04763 380.928377,1207.49108 L380.676321,1207.55914 C379.116816,1207.94481 377.489394,1207.6244 376.172056,1206.69787 L375.955435,1206.53785 L373.532,1204.651 L376.566,1220.5 L389.048977,1220.5 L389.048977,1225.5 L374.5,1225.5 C373.357705,1225.5 372.368707,1224.72738 372.082245,1223.6362 L372.044613,1223.47019 L368.321314,1204.02649 C367.864284,1201.63981 369.428581,1199.33452 371.81527,1198.87749 C372.976463,1198.65513 374.174522,1198.90993 375.14182,1199.57751 L375.345468,1199.72686 L379.022699,1202.5892 C379.175313,1202.7075 379.329691,1202.74154 379.482345,1202.70379 C379.626697,1202.6685 379.774783,1202.56113 379.891631,1202.38601 L379.957712,1202.27284 L384.079877,1194.1857 C385.183429,1192.02067 387.833134,1191.16018 389.998158,1192.26373 Z" id="free-img"></path></g></g></svg>