<svg xmlns="http://www.w3.org/2000/svg" xmlns:xlink="http://www.w3.org/1999/xlink" width="66px" height="135px" viewBox="0 0 66 135"><title>SALE</title><defs><polygon id="path-1" points="5.86197757e-13 9.17712772e-14 66 6.68224225e-13 66 135 33.661847 118.539568 1.99307237e-12 135"></polygon></defs><g id="Page-1" stroke="none" stroke-width="1" fill="none" fill-rule="evenodd"><g id="SALE" transform="translate(33.000000, 67.500000) rotate(-360.000000) translate(-33.000000, -67.500000) translate(0.000000, 0.000000)"><g id="Group-4" transform="translate(0.000000, 0.000000)"><mask id="mask-2" fill="white"><use xlink:href="#path-1"></use></mask><g id="Rectangle-28"><use fill="#F20487" xlink:href="#path-1"></use><use fill="#FFFFFF" xlink:href="#path-1"></use><use fill="#FF5100" xlink:href="#path-1"></use><use fill="#FF5100" xlink:href="#path-1"></use></g><polygon id="Rectangle-11" fill="#0A1E33" mask="url(#mask-2)" points="0 -10 66 -10 66 69 33.0856306 58.65 0 69"></polygon></g><path d="M19.8073333,82 L20.6543333,77.776 L23.1953333,82 L24.9883333,82 L26.5283333,74.3 L24.3943333,74.3 L23.5583333,78.513 L21.0063333,74.3 L19.2133333,74.3 L17.6733333,82 L19.8073333,82 Z M33.3214444,82 L33.6734444,80.317 L29.6364444,80.317 L29.9114444,78.909 L33.3434444,78.909 L33.6624444,77.281 L30.2414444,77.281 L30.4944444,75.983 L34.3774444,75.983 L34.7184444,74.3 L28.6904444,74.3 L27.1504444,82 L33.3214444,82 Z M39.2785556,82 L41.7315556,77.358 L42.2925556,82 L44.6245556,82 L48.6615556,74.3 L46.5055556,74.3 L43.8875556,79.283 L43.3375556,74.3 L41.3245556,74.3 L38.7285556,79.217 L38.1345556,74.3 L35.9895556,74.3 L36.9355556,82 L39.2785556,82 Z M15.3132222,93 L16.8532222,85.3 L14.6752222,85.3 L13.1352222,93 L15.3132222,93 Z M19.6093333,93 L20.4563333,88.776 L22.9973333,93 L24.7903333,93 L26.3303333,85.3 L24.1963333,85.3 L23.3603333,89.513 L20.8083333,85.3 L19.0153333,85.3 L17.4753333,93 L19.6093333,93 Z M30.7584444,93 L31.9574444,87.027 L34.3114444,87.027 L34.6634444,85.3 L27.7664444,85.3 L27.4144444,87.027 L29.7794444,87.027 L28.5804444,93 L30.7584444,93 Z M36.7265556,93 L37.1335556,90.954 L38.2335556,90.954 L39.3775556,93 L41.6545556,93 L40.3455556,90.69 C41.0202222,90.4553333 41.5445556,90.0831667 41.9185556,89.5735 C42.2925556,89.0638333 42.4795556,88.457 42.4795556,87.753 C42.4795556,86.983 42.2082222,86.3816667 41.6655556,85.949 C41.1228889,85.5163333 40.3602222,85.3 39.3775556,85.3 L39.3775556,85.3 L36.0885556,85.3 L34.5485556,93 L36.7265556,93 Z M38.7615556,89.271 L37.4635556,89.271 L37.9255556,87.016 L39.0695556,87.016 C39.4508889,87.016 39.7478889,87.0948333 39.9605556,87.2525 C40.1732222,87.4101667 40.2795556,87.6466667 40.2795556,87.962 C40.2795556,88.38 40.1475556,88.7026667 39.8835556,88.93 C39.6195556,89.1573333 39.2455556,89.271 38.7615556,89.271 L38.7615556,89.271 Z M47.4576667,93.154 C48.389,93.154 49.2195,92.956 49.9491667,92.56 C50.6788333,92.164 51.2471667,91.614 51.6541667,90.91 C52.0611667,90.206 52.2646667,89.414 52.2646667,88.534 C52.2646667,87.874 52.1088333,87.2873333 51.7971667,86.774 C51.4855,86.2606667 51.0418333,85.861 50.4661667,85.575 C49.8905,85.289 49.214,85.146 48.4366667,85.146 C47.5053333,85.146 46.6748333,85.344 45.9451667,85.74 C45.2155,86.136 44.6471667,86.686 44.2401667,87.39 C43.8331667,88.094 43.6296667,88.886 43.6296667,89.766 C43.6296667,90.426 43.7855,91.0126667 44.0971667,91.526 C44.4088333,92.0393333 44.8525,92.439 45.4281667,92.725 C46.0038333,93.011 46.6803333,93.154 47.4576667,93.154 Z M47.6446667,91.35 C47.0726667,91.35 46.6271667,91.1941667 46.3081667,90.8825 C45.9891667,90.5708333 45.8296667,90.1546667 45.8296667,89.634 C45.8296667,89.1426667 45.9286667,88.6935 46.1266667,88.2865 C46.3246667,87.8795 46.607,87.555 46.9736667,87.313 C47.3403333,87.071 47.7656667,86.95 48.2496667,86.95 C48.8216667,86.95 49.2671667,87.1058333 49.5861667,87.4175 C49.9051667,87.7291667 50.0646667,88.1453333 50.0646667,88.666 C50.0646667,89.1573333 49.9656667,89.6065 49.7676667,90.0135 C49.5696667,90.4205 49.2873333,90.745 48.9206667,90.987 C48.554,91.229 48.1286667,91.35 47.6446667,91.35 Z M14.1771667,104 L14.5731667,101.987 L16.1131667,101.987 C16.8758333,101.987 17.545,101.855 18.1206667,101.591 C18.6963333,101.327 19.14,100.953 19.4516667,100.469 C19.7633333,99.985 19.9191667,99.4203333 19.9191667,98.775 C19.9191667,97.9903333 19.6478333,97.3816667 19.1051667,96.949 C18.5625,96.5163333 17.7925,96.3 16.7951667,96.3 L16.7951667,96.3 L13.5391667,96.3 L11.9991667,104 L14.1771667,104 Z M16.2121667,100.271 L14.9141667,100.271 L15.3651667,98.016 L16.5091667,98.016 C16.8978333,98.016 17.1966667,98.0948333 17.4056667,98.2525 C17.6146667,98.4101667 17.7191667,98.6466667 17.7191667,98.962 C17.7191667,99.38 17.589,99.7026667 17.3286667,99.93 C17.0683333,100.157333 16.6961667,100.271 16.2121667,100.271 L16.2121667,100.271 Z M22.7852778,104 L23.1922778,101.954 L24.2922778,101.954 L25.4362778,104 L27.7132778,104 L26.4042778,101.69 C27.0789444,101.455333 27.6032778,101.083167 27.9772778,100.5735 C28.3512778,100.063833 28.5382778,99.457 28.5382778,98.753 C28.5382778,97.983 28.2669444,97.3816667 27.7242778,96.949 C27.1816111,96.5163333 26.4189444,96.3 25.4362778,96.3 L25.4362778,96.3 L22.1472778,96.3 L20.6072778,104 L22.7852778,104 Z M24.8202778,100.271 L23.5222778,100.271 L23.9842778,98.016 L25.1282778,98.016 C25.5096111,98.016 25.8066111,98.0948333 26.0192778,98.2525 C26.2319444,98.4101667 26.3382778,98.6466667 26.3382778,98.962 C26.3382778,99.38 26.2062778,99.7026667 25.9422778,99.93 C25.6782778,100.157333 25.3042778,100.271 24.8202778,100.271 L24.8202778,100.271 Z M31.5363889,104 L33.0763889,96.3 L30.8983889,96.3 L29.3583889,104 L31.5363889,104 Z M37.9005,104.154 C38.6191667,104.154 39.2571667,104.042167 39.8145,103.8185 C40.3718333,103.594833 40.8595,103.23 41.2775,102.724 L41.2775,102.724 L39.9905,101.459 C39.4698333,102.053 38.8428333,102.35 38.1095,102.35 C37.5301667,102.35 37.0718333,102.192333 36.7345,101.877 C36.3971667,101.561667 36.2285,101.143667 36.2285,100.623 C36.2285,100.117 36.333,99.6605 36.542,99.2535 C36.751,98.8465 37.0425,98.5275 37.4165,98.2965 C37.7905,98.0655 38.2231667,97.95 38.7145,97.95 C39.4698333,97.95 40.0345,98.2506667 40.4085,98.852 L40.4085,98.852 L41.9815,97.598 C41.7101667,97.136 41.2995,96.7785 40.7495,96.5255 C40.1995,96.2725 39.5688333,96.146 38.8575,96.146 C37.9188333,96.146 37.0828333,96.344 36.3495,96.74 C35.6161667,97.136 35.046,97.686 34.639,98.39 C34.232,99.094 34.0285,99.886 34.0285,100.766 C34.0285,101.433333 34.1861667,102.023667 34.5015,102.537 C34.8168333,103.050333 35.2678333,103.448167 35.8545,103.7305 C36.4411667,104.012833 37.1231667,104.154 37.9005,104.154 Z M48.5986111,104 L48.9506111,102.317 L44.9136111,102.317 L45.1886111,100.909 L48.6206111,100.909 L48.9396111,99.281 L45.5186111,99.281 L45.7716111,97.983 L49.6546111,97.983 L49.9956111,96.3 L43.9676111,96.3 L42.4276111,104 L48.5986111,104 Z M52.7077222,101.195 L54.1047222,96.3 L51.6077222,96.3 L51.0467222,101.195 L52.7077222,101.195 Z M51.4647222,104.099 C51.8313889,104.099 52.1412222,103.978 52.3942222,103.736 C52.6472222,103.494 52.7737222,103.200667 52.7737222,102.856 C52.7737222,102.555333 52.6637222,102.306 52.4437222,102.108 C52.2237222,101.91 51.9377222,101.811 51.5857222,101.811 C51.2117222,101.811 50.9000556,101.9265 50.6507222,102.1575 C50.4013889,102.3885 50.2767222,102.68 50.2767222,103.032 C50.2767222,103.332667 50.3885556,103.585667 50.6122222,103.791 C50.8358889,103.996333 51.1200556,104.099 51.4647222,104.099 Z" id="NEWINTROPRICE!" fill="#FFFFFF" fill-rule="nonzero"></path><path d="M54.5416222,17.4977485 C54.8207525,17.9602489 54.6934908,18.5545239 54.2626602,18.8647103 L54.1921266,18.9112656 L47.8893084,22.7156125 C48.5208875,23.2168723 49.04263,23.8416983 49.4545358,24.5900906 C50.0637195,25.6969172 50.3683113,27.0396952 50.3683113,28.6184247 C50.3683113,30.4373956 49.982209,32.2091761 49.2100044,33.9337665 C48.4377998,35.6583568 47.2365926,37.0783553 45.6063828,38.1937619 C43.9761731,39.3091686 41.959861,39.8668719 39.5574467,39.8668719 C38.5621607,39.8668719 37.614065,39.7596213 36.7131597,39.54512 C35.8122543,39.3306187 35.0786599,39.034607 34.5123765,38.6570847 L34.5123765,38.6570847 L36.4171479,35.5940064 L36.6198706,35.7234687 C37.4496479,36.220604 38.5060604,36.4691716 39.789108,36.4691716 C41.4707981,36.4691716 42.8135761,35.9972688 43.8174421,35.0534631 C44.8213081,34.1096575 45.4862621,32.8912902 45.8123041,31.3983613 C44.7826979,32.359327 43.4356298,32.8398099 41.7710999,32.8398099 C40.6900134,32.8398099 39.7033075,32.6338887 38.8109822,32.2220462 C37.9186569,31.8102038 37.2065126,31.2138902 36.6745494,30.4331055 C36.5213748,30.2082847 36.3902529,29.9710147 36.2811837,29.7212957 L28.878,34.188 L25.5033226,39.5579901 L20.8700949,39.5579901 L21.418,38.691 L14.5243407,42.8517471 C14.0374982,43.1455685 13.404645,42.989094 13.1108236,42.5022515 C12.8316933,42.0397511 12.9589551,41.4454761 13.3897857,41.1352897 L13.4603193,41.0887344 L23.875,34.803 L30.1108102,24.9375827 L24.2677953,24.9375827 L23.6757717,27.8719602 L19.9691896,27.8719602 L21.2304571,21.5398824 L35.6706834,21.5398824 L35.1301402,24.2425985 L31.314,30.313 L35.8770253,27.5588133 C35.8888938,26.4123047 36.1519049,25.3930876 36.6660588,24.5011619 L36.8161203,24.2554686 C37.442464,23.2859228 38.3047592,22.5394583 39.4030057,22.0160752 C40.5012523,21.4926921 41.7367797,21.2310005 43.1095879,21.2310005 C44.0654337,21.2310005 44.9439366,21.3555039 45.7450964,21.6045107 L53.1281052,17.1482529 C53.6149477,16.8544315 54.2478008,17.010906 54.5416222,17.4977485 Z M17.1068465,20.8130405 L16.8803332,21.9559033 L17.1576833,21.9898481 C17.7913201,22.0821909 18.3303618,22.2665012 18.7748085,22.5427788 L18.7748085,22.5427788 L18.1467487,23.8194905 L17.9565868,23.7026617 C17.5665972,23.482452 17.1186135,23.3429299 16.6126356,23.2840953 L16.6126356,23.2840953 L16.2522734,25.0962021 L16.4837289,25.167039 C16.782452,25.2625864 17.0416381,25.3625269 17.2612875,25.4668603 C17.5358491,25.5972771 17.7640785,25.7808902 17.9459755,26.0176996 C18.1278726,26.254509 18.2188212,26.5582428 18.2188212,26.9289011 C18.2188212,27.6084411 17.9648517,28.1644284 17.4569126,28.596863 C16.9489736,29.0292976 16.2625695,29.2832671 15.3977003,29.3587716 L15.3977003,29.3587716 L15.171187,30.4913383 L14.1415808,30.4913383 L14.3680942,29.3587716 L14.0837169,29.3243827 C13.709764,29.2711178 13.3566777,29.1882002 13.0244581,29.0756299 C12.6091836,28.934917 12.2676976,28.765032 12,28.5659748 L12,28.5659748 L12.6898361,27.2892632 L12.9012271,27.4317993 C13.1180879,27.5675786 13.3513581,27.6830876 13.6010376,27.7783261 C13.9339436,27.9053109 14.2788616,27.9859634 14.6357918,28.0202836 L14.6357918,28.0202836 L14.9858579,26.2802492 L14.7504899,26.2054998 C14.4468247,26.1050102 14.1837947,26.0012259 13.9613997,25.8941469 C13.6834061,25.7602981 13.4500287,25.5681049 13.2612675,25.3175674 C13.0725064,25.0670299 12.9781258,24.749568 12.9781258,24.3651817 C12.9781258,23.912155 13.0948145,23.5106086 13.3281919,23.1605425 C13.5615693,22.8104764 13.8961913,22.5307668 14.3320579,22.3214135 C14.7679245,22.1120603 15.2741476,21.9867915 15.850727,21.9456073 L15.850727,21.9456073 L16.0772404,20.8130405 L17.1068465,20.8130405 Z M44.6834715,24.6498712 L40.0258933,27.4612905 C40.0644123,28.1310771 40.3201059,28.6669394 40.792974,29.0688774 C41.3077771,29.50646 41.9941812,29.7252513 42.8521864,29.7252513 C43.8303122,29.7252513 44.6196769,29.4592697 45.2202805,28.9273065 C45.8208841,28.3953433 46.1211859,27.7175193 46.1211859,26.8938344 C46.1211859,26.1731101 45.8552043,25.5682164 45.3232411,25.0791535 C45.1338983,24.9050803 44.9206418,24.7619862 44.6834715,24.6498712 Z M15.9536876,26.578835 L15.675694,27.9893954 C15.9571197,27.9344831 16.1733369,27.8366705 16.3243459,27.6959576 C16.4753548,27.5552448 16.5508592,27.3887918 16.5508592,27.1965987 C16.5508592,26.9357651 16.351802,26.7298439 15.9536876,26.578835 L15.9536876,26.578835 Z M15.5727334,23.3252795 L15.4073786,23.3637868 C15.1970644,23.422543 15.0273853,23.5109518 14.8983413,23.6290133 C14.7370364,23.7765902 14.6529519,23.9499072 14.6460878,24.1489644 C14.6460878,24.2999733 14.6992841,24.4269581 14.8056768,24.5299187 C14.9120694,24.6328793 15.0682263,24.7255439 15.2741476,24.8079124 L15.2741476,24.8079124 L15.5727334,23.3252795 Z" id="Combined-Shape" fill="#FFFFFF" fill-rule="nonzero"></path></g></g></svg>