<svg xmlns="http://www.w3.org/2000/svg" xmlns:xlink="http://www.w3.org/1999/xlink" width="100px" height="100px" viewBox="0 0 100 100"><title>woocomerce-logo</title><g id="Page-1" stroke="none" stroke-width="1" fill="none" fill-rule="evenodd"><g id="woocomerce-logo" fill-rule="nonzero"><path d="M94.9993478,0 L4.99956522,0 C2.23195652,0 0,2.23217391 0,5 L0,94.9995652 C0,97.7673913 2.23195652,99.9995652 4.99956522,99.9995652 L94.9993478,99.9995652 C97.7671739,99.9995652 99.9991304,97.7673913 99.9991304,94.9995652 L99.9991304,5 C99.9991304,2.23217391 97.7671739,0 94.9993478,0" id="Path"></path><g id="woocommerce-logo" transform="translate(3.000000, 22.000000)"><path d="M8.72388458,0 L85.2379655,0 C90.0801424,0 94,3.92307693 94,8.76923075 L94,38 C94,42.8461537 90.0801424,46.7692308 85.2379655,46.7692308 L57.7989631,46.7692308 L61.5651006,56 L45.0017814,46.7692308 L8.76231458,46.7692308 C3.92013767,46.7692308 0,42.8461537 0,38 L0,8.76923075 C-0.0381497972,3.96153845 3.88170768,0 8.72388458,0 L8.72388458,0 Z" id="Path" fill="#9B5C8F"></path><path d="M5.66089968,7.79860593 C6.19832568,7.07352626 7.00446473,6.69190539 8.07931677,6.61558121 C10.037083,6.46293288 11.1503226,7.37882295 11.4190357,9.36325152 C12.6090504,17.3391278 13.9142279,24.0938173 15.2961805,29.6273199 L23.7030591,13.7137295 C24.4708105,12.2635702 25.4304999,11.5003284 26.582127,11.4240042 C28.2711803,11.309518 29.3076447,12.3780564 29.729908,14.6296196 C30.6895974,19.7051772 31.9179997,24.0174931 33.3767275,27.6810535 C34.3748044,17.9878832 36.0638576,11.0042213 38.4438871,6.69190539 C39.0197009,5.62336695 39.8642275,5.08909772 40.9774671,5.01277354 C41.8603813,4.93644936 42.6665204,5.20358397 43.395884,5.77601528 C44.1252479,6.34844662 44.5091235,7.07352626 44.585899,7.95125429 C44.6242866,8.63817185 44.5091235,9.21060316 44.2020231,9.78303447 C42.7049079,12.5307048 41.4765053,17.1483174 40.4784284,23.559548 C39.5187391,29.7799683 39.1732511,34.6265534 39.4035764,38.0993034 C39.4803516,39.0533556 39.3268013,39.8929215 38.9429258,40.6180009 C38.4822747,41.4575669 37.7912983,41.9155121 36.9083842,41.9918363 C35.9103073,42.0681604 34.8738429,41.6102155 33.8757659,40.5798389 C30.3057217,36.9544409 27.4650412,31.5354243 25.3921123,24.3227898 C22.89692,29.207537 21.0543165,32.8710973 19.8643017,35.3134709 C17.5994349,39.6257867 15.6800563,41.839188 14.0677782,41.9536742 C13.0313137,42.0299983 12.1483995,41.1522703 11.3806481,39.3204901 C9.42288182,34.3212567 7.31156531,24.6662486 5.04669849,10.3554658 C4.89314819,9.36325152 5.12347365,8.48552349 5.66089968,7.79860593 Z M88.1557945,13.7900537 C86.7738417,11.3858421 84.7393004,9.93568283 82.0137826,9.36325152 C81.2844186,9.21060316 80.5934426,9.13427898 79.9408537,9.13427898 C76.2556467,9.13427898 73.261416,11.0423834 70.9197739,14.8585921 C68.9236201,18.1023695 67.9255432,21.6896057 67.9255432,25.6203008 C67.9255432,28.5587815 68.5397445,31.0774792 69.7681468,33.176394 C71.1500996,35.5806056 73.1846409,37.030765 75.9101587,37.6031961 C76.6395226,37.7558444 77.3304987,37.8321685 77.9830875,37.8321685 C81.7066822,37.8321685 84.7009128,35.9240644 87.004167,32.1078556 C89.0003212,28.8259161 89.998398,25.2386799 89.998398,21.3079849 C90.0367856,18.331342 89.3841967,15.8508064 88.1557945,13.7900537 Z M83.3189603,24.3609518 C82.7815342,26.8796496 81.8218448,28.7495919 80.4015048,30.0089408 C79.2882649,31.0011551 78.2518004,31.420938 77.2921111,31.2301276 C76.3708094,31.0393172 75.6030578,30.2379133 75.0272445,28.7495919 C74.5665934,27.5665672 74.336268,26.3835425 74.336268,25.276842 C74.336268,24.3227898 74.4130432,23.3687376 74.6049809,22.4910096 C74.9504693,20.926364 75.6030578,19.3998805 76.6395226,17.9497212 C77.9063124,16.0797789 79.2498773,15.3165371 80.6318302,15.5836718 C81.5531319,15.7744822 82.3208835,16.575886 82.8966968,18.0642074 C83.3573479,19.2472322 83.5876732,20.4302569 83.5876732,21.5369574 C83.5876732,22.5291717 83.5108981,23.4832238 83.3189603,24.3609518 Z M64.1251735,13.7900537 C62.743221,11.3858421 60.6702922,9.93568283 57.983162,9.36325152 C57.253798,9.21060316 56.5628216,9.13427898 55.9102331,9.13427898 C52.225026,9.13427898 49.230795,11.0423834 46.8891532,14.8585921 C44.8929995,18.1023695 43.8949226,21.6896057 43.8949226,25.6203008 C43.8949226,28.5587815 44.5091235,31.0774792 45.7375261,33.176394 C47.1194786,35.5806056 49.1540199,37.030765 51.8795377,37.6031961 C52.6089016,37.7558444 53.299878,37.8321685 53.9524665,37.8321685 C57.6760611,37.8321685 60.6702922,35.9240644 62.9735464,32.1078556 C64.9697002,28.8259161 65.967777,25.2386799 65.967777,21.3079849 C65.967777,18.331342 65.3535761,15.8508064 64.1251735,13.7900537 Z M59.2499518,24.3609518 C58.712526,26.8796496 57.7528366,28.7495919 56.3324962,30.0089408 C55.2192567,31.0011551 54.1827922,31.420938 53.2231029,31.2301276 C52.3018012,31.0393172 51.5340496,30.2379133 50.9582359,28.7495919 C50.4975852,27.5665672 50.2672598,26.3835425 50.2672598,25.276842 C50.2672598,24.3227898 50.344035,23.3687376 50.5359727,22.4910096 C50.8814608,20.926364 51.5340496,19.3998805 52.5705141,17.9497212 C53.8373039,16.0797789 55.1808691,15.3165371 56.5628216,15.5836718 C57.4841234,15.7744822 58.2518749,16.575886 58.8276886,18.0642074 C59.2883393,19.2472322 59.5186647,20.4302569 59.5186647,21.5369574 C59.5570522,22.5291717 59.4418896,23.4832238 59.2499518,24.3609518 L59.2499518,24.3609518 L59.2499518,24.3609518 Z" id="Shape" fill="#FFFFFF"></path></g></g></g></svg>