<svg xmlns="http://www.w3.org/2000/svg" width="75" height="17" viewBox="0 0 75 17"><path d="M4.96 16.42c4.56 0 7.32-1.8 7.32-5.62V1H3.72v2.5h5.36v7.22c0 1.82-1.66 2.98-4.82 2.98-1.16 0-2.36-.16-3.56-.54v2.64c1.16.38 2.62.62 4.26.62zm18.42-.06c5.44 0 8.9-3.1 8.9-7.86 0-4.74-3.46-7.84-8.9-7.84s-8.9 3.1-8.9 7.84c0 4.76 3.46 7.86 8.9 7.86zm0-2.64c-3.46 0-5.7-2.04-5.7-5.22 0-3.18 2.24-5.24 5.7-5.24s5.7 2.06 5.7 5.24-2.24 5.22-5.7 5.22zM47.18 16v-2.6h-9.4V1h-3.2v15h12.6zm5.4 0V1h-3.2v15h3.2zm16.46 0v-2.6H58.58V9.64h9.22V7.12h-9.22V3.6h10.3V1h-13.5v15h13.66zm5.64 0v-3.2h-3.4V16h3.4z" fill="#000" fill-rule="nonzero"></path></svg>