<?xml version="1.0" encoding="UTF-8"?> <svg xmlns="http://www.w3.org/2000/svg" xmlns:xlink="http://www.w3.org/1999/xlink" width="616px" height="459px" viewBox="0 0 616 459" version="1.1"><title>Custom-icons</title><defs><rect id="path-1" x="0" y="0" width="140" height="140" rx="4"></rect><rect id="path-2" x="0" y="0" width="140" height="140" rx="4"></rect><rect id="path-3" x="0" y="0" width="140" height="140" rx="4"></rect><rect id="path-4" x="0" y="0" width="140" height="140" rx="4"></rect><rect id="path-5" x="0" y="0" width="140" height="140" rx="4"></rect><rect id="path-6" x="0" y="0" width="140" height="140" rx="4"></rect><rect id="path-7" x="0" y="0" width="140" height="140" rx="4"></rect><rect id="path-8" x="0" y="0" width="140" height="140" rx="4"></rect></defs><g id="Presentation-full-_-Charity" stroke="none" stroke-width="1" fill="none" fill-rule="evenodd"><g id="Presentation" transform="translate(-279.000000, -4964.000000)"><g id="Custom-icons" transform="translate(279.000000, 4964.000000)"><polygon id="Rectangle-14" fill="#FFFFFF" points="0 0 616 0 616 459 0 459"></polygon><g id="Group-27" transform="translate(12.000000, 169.000000)"><g id="Group-35"><g id="Rectangle-7"><use fill="#FFFFFF" xlink:href="#path-1"></use><use fill="#F9F9F9" xlink:href="#path-1"></use></g><g id="heart" transform="translate(50.000000, 50.000000)"><rect id="Rectangle" x="0" y="0" width="40" height="40"></rect><g id="heart-balloons" transform="translate(3.250000, 3.250080)" fill="#45545E" fill-rule="nonzero"><path d="M15.57166,0 L15.8512682,0.00438769239 C17.811994,0.0755113165 19.6460703,0.991477119 20.8809123,2.51626159 C21.1415976,2.83815608 21.0919777,3.3104303 20.7700832,3.57111556 C20.4481887,3.83180082 19.9759145,3.78218093 19.7152292,3.46028643 C18.7532162,2.27239155 17.3243826,1.55881017 15.7968927,1.50340181 C14.2694042,1.44799349 12.7926349,2.05617546 11.7470989,3.17124581 C11.4509829,3.48705528 10.9497309,3.48728045 10.6533313,3.17173715 C9.16643088,1.58880147 6.86375793,1.07445763 4.84472349,1.87427001 C2.82566904,2.67409031 1.49972897,4.62588762 1.50000005,6.7978645 C1.50000005,7.47827659 1.65425439,8.20901011 1.95660096,8.98482811 C2.7018283,10.8970733 4.3011565,12.9905396 6.4982259,15.1299578 C7.61991985,16.2222184 8.8242882,17.25552 10.0287286,18.1959019 C10.239451,18.360426 10.4425602,18.5161037 10.6367724,18.6624207 L11.2000004,19.0779197 L11.4412251,18.9023966 C11.9707066,18.5117153 12.5478957,18.0657769 13.1526723,17.5727296 C13.4737159,17.3109971 13.9461493,17.3590783 14.2078817,17.6801219 C14.4696142,18.0011655 14.421533,18.4735988 14.1004895,18.7353313 C13.6010222,19.1425246 13.119583,19.5187469 12.6663213,19.8600383 L12.0703955,20.3007316 L11.694,20.567 L11.5622656,20.7057443 C9.87937771,22.5630576 9.8794013,25.4026174 11.5630448,27.2606863 L11.7312339,27.4373695 C13.4437681,29.1558562 14.0295566,31.6989854 13.2414054,33.9935611 C13.1068459,34.3853093 12.6801893,34.5938019 12.2884411,34.4592425 C11.896693,34.3246831 11.6882003,33.8980265 11.8227597,33.5062783 C12.3988622,31.8290484 12.0143421,29.9780353 10.8352802,28.6717325 L10.6695898,28.4970441 C8.3863793,26.2132765 8.19453393,22.6301732 10.0940537,20.1280538 L10.0872091,20.1235518 L9.61313492,19.7689484 L9.10562051,19.378218 C7.86084587,18.4063447 6.61599919,17.3383142 5.4517591,16.2046239 C3.11469648,13.9288859 1.39750935,11.6811462 0.558983524,9.52949818 C0.192531113,8.58918532 5.33574926e-08,7.6771269 5.33574926e-08,6.79795824 C-0.00034790867,4.01083838 1.70121423,1.50612154 4.29228583,0.479704617 C6.54904304,-0.414278323 9.08192988,-0.0289082422 10.9587331,1.42758213 L11.2000004,1.62391969 L11.2605048,1.57225375 C12.3914966,0.63018764 13.8011316,0.0794223011 15.2759009,0.00789052107 L15.57166,0 Z M19.2043853,6.9134488 C21.1764137,6.22318517 23.3387173,6.67697163 24.8605112,8.03351716 L24.8605112,8.03351716 L24.9490004,8.11591969 L25.0394161,8.03351716 C26.56121,6.67697163 28.7235136,6.22318517 30.6955421,6.9134488 C32.9830617,7.71414294 34.5108172,9.8779066 34.5001698,12.2982839 C34.5001698,14.4503967 33.1271562,16.795 30.784248,19.271598 C29.2366235,20.9075322 27.4699156,22.3918038 25.8319736,23.5902304 L25.8319736,23.5902304 L25.5540545,23.791089 L25.484,23.839 L25.3314063,24.0020609 C23.8446044,25.6617427 23.8476986,28.1833022 25.3393273,29.8401535 L25.4989436,30.0083966 C26.4832723,30.9966341 27.0778239,32.3069932 27.1733023,33.6985821 C27.2016553,34.1118241 26.8896411,34.4698076 26.476399,34.4981606 C26.063157,34.5265136 25.7051735,34.2144993 25.6768205,33.8012573 C25.6115158,32.8494466 25.2311182,31.9489264 24.600042,31.2408005 L24.4370877,31.067859 C22.3576692,28.9872963 22.1646049,25.7338596 23.8604837,23.4355346 L23.5713344,23.2210067 C22.078861,22.0934329 20.5085413,20.7439388 19.1156793,19.271598 C16.7727711,16.795 15.3997647,14.4503967 15.3997647,12.3016334 C15.3891101,9.8779066 16.9168657,7.71414294 19.2043853,6.9134488 Z M24.361549,9.68309553 C23.2554835,8.28361141 21.3834978,7.73993508 19.6999453,8.32922431 C18.0163784,8.91851853 16.8919527,10.5110453 16.8998018,12.2982839 C16.8998018,14.3934848 18.673404,16.901592 21.2418247,19.321263 L21.2418247,19.321263 L21.7658182,19.8038695 C22.4778353,20.4453765 23.2417427,21.078218 24.0389847,21.692887 L24.0389847,21.692887 L24.6428764,22.1503329 L24.9489663,22.3762218 L25.2548502,22.1519364 C25.3617089,22.0723945 25.4680707,21.9924988 25.5738935,21.9122706 L25.5738935,21.9122706 L26.2020259,21.4270846 L26.8152031,20.9349531 C30.2436861,18.128478 32.8545528,15.0371646 32.994132,12.5060407 L32.994132,12.5060407 L33.0001328,12.2949345 C33.0079747,10.5110453 31.8835489,8.91851853 30.1999821,8.32922431 C28.5164295,7.73993508 26.6444439,8.28361141 25.5383783,9.68309553 L25.5383783,9.68309553 L24.9499637,10.4276056 Z" id="Combined-Shape"></path></g></g></g><g id="Group-35-Copy-4" transform="translate(0.000000, 150.000000)"><g id="Rectangle-7"><use fill="#FFFFFF" xlink:href="#path-2"></use><use fill="#F9F9F9" xlink:href="#path-2"></use></g><g id="organic" transform="translate(50.000000, 50.000000)"><rect id="Rectangle" x="0" y="0" width="40" height="40"></rect><g id="flower-07" transform="translate(3.250000, 3.250000)" fill="#45545E" fill-rule="nonzero"><path d="M16.9909193,0.039748001 L17.2161135,0.121393079 L17.4393044,0.207985744 C17.7821393,0.344022297 18.16269,0.508512699 18.5716918,0.702213682 C19.7389308,1.25501153 20.9061272,1.93327864 21.9992228,2.74476903 C23.4424264,3.81617198 24.6432778,5.03698884 25.521792,6.41807556 C27.8056358,5.32179705 30.2214266,4.71428572 32.75,4.71428572 C33.1642136,4.71428572 33.5,5.05007216 33.5,5.46428572 L33.5,5.46428572 L33.5,18.0357143 C33.5,27.1317157 25.9977469,34.5 16.75,34.5 C7.50225313,34.5 0,27.1317157 0,18.0357143 L0,18.0357143 L0,5.46428572 C0,5.05007216 0.335786438,4.71428572 0.75,4.71428572 C3.26239288,4.71428572 5.66344199,5.31404691 7.93576352,6.39649867 C8.81772492,4.96966819 10.0384969,3.72404912 11.5123245,2.64786328 C12.606196,1.84912056 13.7741361,1.19074953 14.9421308,0.661991384 C15.2491137,0.523018426 15.5401047,0.400431425 15.8112029,0.293756221 L16.2992396,0.110867991 L16.5253422,0.0344380722 C16.6771679,-0.0132291138 16.8402202,-0.0113694946 16.9909193,0.039748001 Z M32,6.23500001 L31.9262119,6.23830339 C29.7506721,6.36526278 27.6552116,6.99174715 25.6574594,8.0268711 C25.6380624,8.04151289 25.6170496,8.05436532 25.5952077,8.06628964 C25.564273,8.08317803 25.5326717,8.09766055 25.5006191,8.10980039 C24.1653616,8.81706343 22.8745062,9.70719505 21.6330117,10.7523307 C20.4421512,11.7548409 19.3836722,12.8302659 18.4718819,13.904876 C18.344566,14.0549268 18.2238964,14.2005667 18.1099807,14.3412038 L18.1099807,14.3412038 L17.7886036,14.7475149 L17.5661598,15.0417072 L17.3705444,15.3140752 C17.0729801,15.7524511 16.4270199,15.7524511 16.1294556,15.3140752 L16.1294556,15.3140752 L16.0544056,15.2070275 L15.7113964,14.7475149 L15.3900193,14.3412038 C15.2761036,14.2005667 15.155434,14.0549268 15.0281181,13.904876 C14.1163278,12.8302659 13.0578488,11.7548409 11.8669883,10.7523307 C10.6127653,9.69647973 9.30816405,8.79882746 7.95864979,8.08754995 C7.93239136,8.0793179 7.90696764,8.06769734 7.88194965,8.05452206 L7.80966197,8.0098767 C5.82180102,6.98489031 3.73739625,6.36456648 1.57378814,6.23830339 L1.57378814,6.23830339 L1.5,6.23500001 L1.5,18.0357143 C1.5,26.1926031 8.15300741,32.8300586 16.4308316,32.9967884 L16.4308316,32.9967884 L16.75,33 C25.1753091,33 32,26.2971786 32,18.0357143 L32,18.0357143 L32,6.23500001 Z M16.741,1.54500001 L16.6002669,1.5975886 C16.2878512,1.71425166 15.9381842,1.8576203 15.5607512,2.02848645 C14.4809075,2.51733812 13.4010092,3.12607976 12.3968981,3.85927957 C11.1030973,4.80401026 10.0376603,5.88203096 9.26868484,7.09551514 C10.4988552,7.79736738 11.6876585,8.64061175 12.8330117,9.60481213 C14.0921512,10.664802 15.2086722,11.7991984 16.1718819,12.9344098 C16.3746581,13.173396 16.5620133,13.4024185 16.7336362,13.619497 L16.7336362,13.619497 L16.75,13.64 L16.9432193,13.3985105 L17.1304938,13.1700014 L17.3281181,12.9344098 C18.2913278,11.7991984 19.4078488,10.664802 20.6669883,9.60481213 C21.7992838,8.65160426 22.9740442,7.81661017 24.1884205,7.11901754 C23.4218213,5.94700281 22.3724015,4.88997157 21.1051085,3.94916085 C20.0972566,3.20095355 19.0134379,2.57113788 17.9296617,2.05786753 C17.6455216,1.92330037 17.3770327,1.80431049 17.1282,1.70071087 L16.741,1.54500001 Z" id="Combined-Shape"></path></g></g></g><g id="Group-35-Copy" transform="translate(151.000000, 0.000000)"><g id="Rectangle-7"><use fill="#FFFFFF" xlink:href="#path-3"></use><use fill="#F9F9F9" xlink:href="#path-3"></use></g><g id="gluten" transform="translate(50.000000, 50.000000)"><rect id="Rectangle" x="0" y="0" width="40" height="40"></rect><g id="vegan-copy-2" transform="translate(6.671875, 2.249828)" fill="#45545E" fill-rule="nonzero"><path d="M1.20388808,5.15481165 L1.28707075,5.22849985 L14.3489428,18.6281066 C16.3282487,15.8769954 19.5137672,14.0909813 23.1093754,14.0909813 C23.5235889,14.0909813 23.8593754,14.4267677 23.8593754,14.8409813 L23.8593754,14.8409813 L23.8593754,19.1690662 L23.8557134,19.460881 C23.7936329,21.931719 22.9454618,24.2034747 21.5572272,26.0224588 L27.4433207,32.0626265 C27.7324435,32.3592422 27.7263692,32.8340771 27.4297534,33.1231999 C27.1601027,33.3860387 26.7431635,33.4049131 26.4523627,33.1833207 L26.36918,33.1096325 L20.565046,27.1546927 C18.7744225,28.9380716 16.3856856,30.095445 13.7348026,30.2803822 L13.7343754,34.750172 C13.7343754,35.1643855 13.3985889,35.500172 12.9843754,35.500172 C12.6046796,35.500172 12.2908844,35.2180181 12.241222,34.8519425 L12.2343754,34.750172 L12.2339482,30.2803822 C6.66794486,29.8920734 2.25765224,25.2166323 2.11303742,19.460881 L2.10937539,19.1690662 L2.10937539,14.8409813 C2.10937539,14.4267677 2.44516182,14.0909813 2.85937539,14.0909813 C7.46554128,14.0909813 11.39871,17.0220049 12.9851654,21.1582107 C13.143931,20.7401576 13.3282494,20.3344161 13.5348126,19.9427679 L0.212930023,6.27550592 C-0.076192719,5.97889015 -0.0701184187,5.50405526 0.226497352,5.21493252 C0.496148053,4.95209367 0.913087276,4.93321931 1.20388808,5.15481165 Z M3.60912539,15.621172 L3.60937539,19.1690662 C3.60937539,24.1285241 7.25150272,28.2070739 11.928958,28.7460442 L12.2341254,28.775172 L12.234,25.226 L12.2306449,24.9537828 C12.0991267,20.1190836 8.50562851,16.1803964 3.91479281,15.6514071 L3.60912539,15.621172 Z M14.6443789,21.0809276 C14.0610514,22.3367894 13.7343754,23.7430813 13.7343754,25.2283851 L13.7343754,25.2283851 L13.7346254,28.775172 L14.0397928,28.7460442 C16.1590518,28.5018478 18.0657777,27.531043 19.5175155,26.0809089 Z M22.3596254,15.621172 L22.053958,15.6514071 C19.3082428,15.9677883 16.9192823,17.5038423 15.414361,19.7217922 L20.497295,24.9347884 C21.6665969,23.3274798 22.3593754,21.3320529 22.3593754,19.1690662 L22.3593754,19.1690662 L22.3596254,15.621172 Z M15.2251319,0.40504061 L16.8561629,3.5521553 C19.2056791,8.08547215 17.4871253,13.7325612 13.0141528,16.1725703 C12.6450354,16.3738701 12.1825588,16.2325152 11.9890565,15.859251 L10.3580255,12.7121363 C8.00850926,8.17881947 9.72706314,2.53173039 14.2000356,0.0917213259 C14.569153,-0.109578523 15.0316296,0.0317763899 15.2251319,0.40504061 Z M14.2641974,1.80848042 L14.0931138,1.92776241 C10.9600829,4.1833346 9.86727262,8.50542724 11.6897884,12.0219135 L12.9512568,14.4540648 L13.1210746,14.3365292 C16.2541055,12.080957 17.3469158,7.75886438 15.5244,4.2423781 L14.2641974,1.80848042 Z" id="Combined-Shape"></path></g></g></g><g id="Group-35-Copy-5" transform="translate(151.000000, 150.000000)"><g id="Rectangle-7"><use fill="#FFFFFF" xlink:href="#path-4"></use><use fill="#F9F9F9" xlink:href="#path-4"></use></g><g id="natural" transform="translate(50.000000, 50.000000)"><rect id="Rectangle" x="0" y="0" width="40" height="40"></rect><g id="Group-2" transform="translate(1.000000, 5.266808)" fill="#45545E" fill-rule="nonzero"><path d="M36.5346213,0.856733553 C37.8899624,2.02845979 38.0388117,4.07705268 36.8670855,5.43239383 L36.7891182,5.51936371 L31.164,11.569 L35.768,11.5695559 C37.0006996,11.5695559 38,12.5688563 38,13.8015559 L38,25.1531923 C38,28.2349412 35.5017489,30.7331923 32.42,30.7331923 L5.58,30.7331923 C2.4982511,30.7331923 0,28.2349412 0,25.1531923 L0,13.8015559 C0,12.5688563 0.999300438,11.5695559 2.232,11.5695559 L21.297,11.569 L31.7352892,1.04116553 C33.037776,-0.272538839 35.1351568,-0.353138407 36.5346213,0.856733553 Z M35.768,13.0695559 L2.232,13.0695559 C1.86141693,13.0695559 1.55515282,13.3449381 1.5066823,13.7022278 L1.5,13.8015559 L1.5,25.1531923 C1.5,27.3382316 3.21764784,29.1220927 5.37636685,29.228199 L5.58,29.2331923 L32.42,29.2331923 C34.6050393,29.2331923 36.3889005,27.5155444 36.4950068,25.3568254 L36.5,25.1531923 L36.5,13.8015559 C36.5,13.4309728 36.2246178,13.1247087 35.8673281,13.0762382 L35.768,13.0695559 Z M32.9290909,1.97822287 L32.8004875,2.09726814 L23.409,11.569 L29.117,11.569 L35.7323499,4.45138661 C36.3622808,3.72274262 36.282258,2.62140005 35.553614,1.99146913 C34.7954142,1.33598647 33.6801048,1.34081193 32.9290909,1.97822287 Z" id="Combined-Shape"></path></g></g></g><g id="Group-35-Copy-2" transform="translate(301.000000, 0.000000)"><g id="Rectangle-7"><use fill="#FFFFFF" xlink:href="#path-5"></use><use fill="#F9F9F9" xlink:href="#path-5"></use></g><g id="spray" transform="translate(50.000000, 50.000000)"><rect id="Rectangle" x="0" y="0" width="40" height="40"></rect><g id="spray-can" transform="translate(4.680547, 3.249993)" fill="#45545E" fill-rule="nonzero"><path d="M1.23139794,1.63063664 L1.31103402,1.70814408 L7.40722473,8.5785384 C7.54793109,8.54535449 7.69066682,8.51799103 7.83522063,8.49669318 L7.83599885,3.05233235 C7.83599885,2.67263659 8.11815273,2.35884139 8.48422829,2.30917897 L8.58599885,2.30233235 L14.0969722,2.30233235 C14.476668,2.30233235 14.7904631,2.58448624 14.8401256,2.9505618 L14.8469722,3.05233235 L14.8467489,8.49654572 C17.5836535,8.89923404 19.6690739,11.4762472 19.6690739,14.5639603 L19.6690739,14.5639603 L19.669,22.4 L28.0054785,31.7963794 C28.2803755,32.1062253 28.2520437,32.5802531 27.9421978,32.8551501 C27.6605196,33.1050565 27.243154,33.1043606 26.9630631,32.8693769 L26.883427,32.7918695 L19.669,24.66 L19.6690739,33.7500068 C19.6690739,34.1297025 19.38692,34.4434977 19.0208444,34.4931602 L18.9190739,34.5000068 L3.76389718,34.5000068 C3.34968362,34.5000068 3.01389718,34.1642203 3.01389718,33.7500068 L3.01389718,33.7500068 L3.01389718,14.5639603 C3.01389718,12.2459014 4.18925104,10.2156758 5.93323312,9.17719463 L0.188982562,2.70363417 C-0.0859144372,2.39378822 -0.0575827119,1.9197604 0.252263242,1.6448634 C0.533941382,1.39495704 0.951307016,1.39565292 1.23139794,1.63063664 Z M6.95434508,10.3293948 C5.52435156,11.0414821 4.51389718,12.6608591 4.51389718,14.5639603 L4.51389718,14.5639603 L4.51345273,33.0000068 L18.1684527,33.0000068 L18.169,22.969 Z M14.0969722,9.94186724 L8.615,9.941 L18.169,20.709 L18.1690739,14.5639603 C18.1690739,12.1454267 16.5371601,10.1851161 14.4861515,9.96285998 L14.2926786,9.94715448 L14.0969722,9.94186724 Z M24.2192219,12.4510427 L24.299306,12.5280871 L27.0547926,15.5978546 C27.3314815,15.9061015 27.3058986,16.3802856 26.9976516,16.6569744 C26.7174271,16.9085097 26.3000645,16.9102337 26.0186159,16.6768778 L25.9385317,16.5998334 L23.1830451,13.530066 C22.9063563,13.221819 22.9319392,12.7476349 23.2401861,12.4709461 C23.5204106,12.2194108 23.9377732,12.2176869 24.2192219,12.4510427 Z M31.3194527,7.67442538 C31.7336663,7.67442538 32.0694527,8.01021182 32.0694527,8.42442538 C32.0694527,8.80412114 31.7872989,9.11791634 31.4212233,9.16757876 L31.3194527,9.17442538 L27.1862227,9.17442538 C26.7720092,9.17442538 26.4362227,8.83863894 26.4362227,8.42442538 C26.4362227,8.04472961 26.7183766,7.73093442 27.0844522,7.68127199 L27.1862227,7.67442538 L31.3194527,7.67442538 Z M13.346,3.802 L9.335,3.802 L9.335,8.441 L13.346,8.441 L13.346,3.802 Z M26.9976516,0.191876323 C27.2778761,0.443411612 27.324494,0.858166157 27.1227736,1.16308776 L27.0547926,1.2509962 L24.299306,4.32076364 C24.0226172,4.62901057 23.548433,4.65459348 23.2401861,4.37790467 C22.9599616,4.12636938 22.9133438,3.71161483 23.1150641,3.40669323 L23.1830451,3.31878479 L25.9385317,0.249017352 C26.2152206,-0.0592295841 26.6894047,-0.0848124941 26.9976516,0.191876323 Z" id="Combined-Shape"></path></g></g></g><g id="Group-35-Copy-6" transform="translate(302.000000, 150.000000)"><g id="Rectangle-7"><use fill="#FFFFFF" xlink:href="#path-6"></use><use fill="#F9F9F9" xlink:href="#path-6"></use></g><g id="vegan" transform="translate(50.000000, 50.000000)"><rect id="Rectangle" x="0" y="0" width="40" height="40"></rect><g id="vegan-copy" transform="translate(1.250000, 3.250000)" fill="#45545E" fill-rule="nonzero"><path d="M36.75,0 C37.1642136,0 37.5,0.335786438 37.5,0.75 L37.5,0.75 L37.5,13.4423077 C37.5,25.0743317 27.9519205,34.5 16.1785714,34.5 L16.1785714,34.5 C7.35188953,34.5 0.172752107,27.5166352 0.00307121096,18.8337991 L0,18.5192308 L0,12.1730769 C0,11.7588634 0.335786438,11.4230769 0.75,11.4230769 C7.25366259,11.4230769 12.8628708,15.2143563 15.4327532,20.6832524 C15.6340985,9.22411908 25.103206,0 36.75,0 Z M36,1.513 L35.7191329,1.52599104 C25.2492743,2.05520094 16.9285714,10.5994873 16.9285714,21.0576923 L16.9285714,21.0576923 L16.927,27.273 L16.9285714,27.4038462 L16.928,32.986 L17.2094385,32.974009 C27.450427,32.4563675 35.6351935,24.2702372 35.9881362,14.1253463 L35.9970587,13.7826499 L36,13.4423077 L36,1.513 Z M1.5,12.942 L1.5,18.5192308 C1.5,26.2030508 7.56771969,32.4923489 15.2380847,32.9707603 L15.428,32.98 L15.428,27.391 L15.4249729,27.0800199 C15.2573318,19.5440155 9.25281843,13.4239899 1.69048674,12.9523166 L1.5,12.942 Z" id="Combined-Shape"></path></g></g></g><g id="Group-35-Copy-3" transform="translate(452.000000, 0.000000)"><g id="Rectangle-7"><use fill="#FFFFFF" xlink:href="#path-7"></use><use fill="#F9F9F9" xlink:href="#path-7"></use></g><g id="sulphate" transform="translate(50.000000, 50.000000)"><rect id="Rectangle" x="0" y="0" width="40" height="40"></rect><g id="Group-3" transform="translate(4.000000, 4.000000)" fill="#45545E" fill-rule="nonzero"><path d="M16.5,0 C25.6126984,0 33,7.38730163 33,16.5 C33,21.2279807 31.0114193,25.4915035 27.825025,28.4998011 C27.8014659,28.5315204 27.7747665,28.5617988 27.7452313,28.5902402 C27.7104566,28.6237268 27.6732855,28.653189 27.6342939,28.6786374 C24.699042,31.3621812 20.7907875,33 16.5,33 C7.38730163,33 0,25.6126984 0,16.5 C0,7.38730163 7.38730163,0 16.5,0 Z M1.5,16.5 C1.5,24.7842712 8.21572875,31.5 16.5,31.5 C20.1674504,31.5 23.527492,30.1838269 26.1335446,27.9980611 L5.37345441,6.44000469 C2.96617067,9.10085554 1.5,12.6292065 1.5,16.5 Z M16.5,1.5 C12.626307,1.5 9.09556982,2.96836801 6.43402671,5.37886562 L27.2343107,26.9773461 C29.8736295,24.2737046 31.5,20.5767819 31.5,16.5 C31.5,8.21572875 24.7842712,1.5 16.5,1.5 Z" id="Combined-Shape"></path></g></g></g><g id="Group-35-Copy-7" transform="translate(452.000000, 150.000000)"><g id="Rectangle-7"><use fill="#FFFFFF" xlink:href="#path-8"></use><use fill="#F9F9F9" xlink:href="#path-8"></use></g><g id="bag" transform="translate(50.000000, 50.000000)"><rect id="Rectangle" x="0" y="0" width="40" height="40"></rect><g id="bag-22" transform="translate(3.250756, 2.250000)" fill="#45545E" fill-rule="nonzero"><path d="M16.7492436,0 C20.4837251,0 23.5503437,2.98907125 23.6764986,6.69435962 L23.6805358,6.93181818 L23.68,10.818 L29.111828,10.8181818 C29.433164,10.8181818 29.7144074,11.0220555 29.8189144,11.3179723 L29.8470168,11.4198669 L33.4030008,29.0469563 C34.0339664,32.3823441 31.4992656,35.5 28.107368,35.5 L28.107368,35.5 L5.39111926,35.5 C1.99922165,35.5 -0.535479168,32.3823441 0.0972274174,29.0380487 L0.0972274174,29.0380487 L3.65147041,11.4198669 C3.72207625,11.0698777 4.02961927,10.8181818 4.38665928,10.8181818 L4.38665928,10.8181818 L9.817,10.818 L9.81795145,6.93181818 C9.81795145,3.11761891 12.9353051,0 16.7492436,0 Z M28.4972436,12.318 L23.68,12.317 L23.6805358,12.3181818 L22.1805358,12.3181818 L22.18,12.317 L11.317,12.317 L11.3179515,12.3181818 L9.81795145,12.3181818 L9.817,12.317 L5.00024362,12.318 L1.56934614,29.3257709 C1.12394449,31.6802371 2.8512196,33.8811442 5.19939654,33.9953509 L5.19939654,33.9953509 L5.39111926,34 L28.107368,34 C30.5523144,34 32.3865806,31.7438714 31.9308821,29.3346786 L31.9308821,29.3346786 L28.4972436,12.318 Z M16.7492436,1.5 C13.8365774,1.5 11.4375803,3.82815463 11.3222887,6.71433594 L11.3179515,6.93181818 L11.317,10.818 L22.18,10.818 L22.1805358,6.93181818 C22.1805358,3.94601746 19.7347265,1.5 16.7492436,1.5 Z" id="Combined-Shape"></path></g></g></g></g><g id="title" transform="translate(123.000000, 55.140000)" fill="#45545E"><path d="M85.309,8.789 C84.2436613,8.21099711 83.1896719,7.922 82.147,7.922 C80.9456607,7.922 79.8520049,8.22233033 78.866,8.823 C77.8799951,9.42366967 77.1036695,10.2509947 76.537,11.305 C75.9703305,12.3590053 75.687,13.5319935 75.687,14.824 C75.687,16.1160065 75.9703305,17.2889947 76.537,18.343 C77.1036695,19.3970053 77.8799951,20.2243303 78.866,20.825 C79.8520049,21.4256697 80.9456607,21.726 82.147,21.726 C83.1216715,21.726 84.1416613,21.4766692 85.207,20.978 C86.2723387,20.4793308 87.2243291,19.7993376 88.063,18.938 L91.701,22.848 C90.4089935,24.2080068 88.8733422,25.2903293 87.094,26.095 C85.3146578,26.8996707 83.5523421,27.302 81.807,27.302 C79.4496549,27.302 77.3190095,26.7580054 75.415,25.67 C73.5109905,24.5819946 72.0150054,23.0973427 70.927,21.216 C69.8389946,19.3346573 69.295,17.2266783 69.295,14.892 C69.295,12.5799884 69.8503278,10.494676 70.961,8.636 C72.0716722,6.77732404 73.5959903,5.31533866 75.534,4.25 C77.4720097,3.18466134 79.6423213,2.652 82.045,2.652 C83.8130088,2.652 85.5583247,3.02032965 87.281,3.757 C89.0036753,4.49367035 90.4656607,5.49666032 91.667,6.766 L88.063,11.118 C87.2923295,10.1433285 86.3743387,9.36700289 85.309,8.789 Z M112.305,8.466 L112.305,26.86 L106.253,26.86 L106.253,23.868 C105.006327,25.9986773 103.04568,27.0866664 100.371,27.132 C98.3763234,27.132 96.784006,26.4916731 95.594,25.211 C94.4039941,23.9303269 93.809,22.2246773 93.809,20.094 L93.809,8.466 L99.861,8.466 L99.861,18.36 C99.861,19.4026719 100.127331,20.2186637 100.66,20.808 C101.192669,21.3973363 101.912329,21.692 102.819,21.692 C103.884339,21.6693332 104.722997,21.2783371 105.335,20.519 C105.947003,19.7596629 106.253,18.7680061 106.253,17.544 L106.253,8.466 L112.305,8.466 Z M123.355,12.41 C122.833664,12.41 122.414335,12.5063324 122.097,12.699 C121.779665,12.8916676 121.621,13.1806647 121.621,13.566 C121.621,13.974002 121.870331,14.3026654 122.369,14.552 C122.867669,14.8013346 123.660995,15.0733319 124.749,15.368 C126.063673,15.7533353 127.157329,16.1329981 128.03,16.507 C128.902671,16.8810019 129.65633,17.4476629 130.291,18.207 C130.92567,18.9663371 131.243,19.9579939 131.243,21.182 C131.243,23.040676 130.523341,24.4969947 129.084,25.551 C127.644659,26.6050053 125.769012,27.132 123.457,27.132 C121.892992,27.132 120.397007,26.9110022 118.969,26.469 C117.540993,26.0269978 116.271672,25.3753376 115.161,24.514 L117.065,20.604 C118.107672,21.329337 119.201328,21.8903313 120.346,22.287 C121.490672,22.6836686 122.572995,22.882 123.593,22.882 C124.182336,22.882 124.652665,22.7856676 125.004,22.593 C125.355335,22.4003324 125.531,22.1226685 125.531,21.76 C125.531,21.3066644 125.276003,20.9553346 124.766,20.706 C124.255997,20.4566654 123.457005,20.1846681 122.369,19.89 C121.076994,19.5046647 120.011671,19.1250019 119.173,18.751 C118.334329,18.3769981 117.603336,17.8160037 116.98,17.068 C116.356664,16.3199963 116.045,15.3453393 116.045,14.144 C116.045,12.285324 116.74766,10.8290053 118.153,9.775 C119.55834,8.72099473 121.371656,8.194 123.593,8.194 C124.93034,8.194 126.25066,8.37533152 127.554,8.738 C128.85734,9.10066848 130.086994,9.63332982 131.243,10.336 L129.203,14.28 C126.822988,13.0333271 124.873674,12.41 123.355,12.41 Z M146.475,25.908 C145.794997,26.2933353 145.013004,26.5936656 144.129,26.809 C143.244996,27.0243344 142.349671,27.132 141.443,27.132 C139.629658,27.132 138.162006,26.6106719 137.04,25.568 C135.917994,24.5253281 135.357,23.0860092 135.357,21.25 L135.357,13.362 L132.807,13.362 L132.807,9.35 L135.357,9.35 L135.357,4.25 L141.375,4.25 L141.375,9.35 L146.135,9.35 L146.135,13.362 L141.375,13.362 L141.375,20.298 C141.375,21.5900065 141.907661,22.236 142.973,22.236 C143.630337,22.236 144.412329,22.032002 145.319,21.624 L146.475,25.908 Z M163.169,9.435 C164.687674,10.2170039 165.866329,11.3163262 166.705,12.733 C167.543671,14.1496737 167.963,15.787324 167.963,17.646 C167.963,19.5273427 167.543671,21.1763262 166.705,22.593 C165.866329,24.0096737 164.687674,25.1089961 163.169,25.891 C161.650326,26.6730039 159.893677,27.064 157.899,27.064 C155.904323,27.064 154.147674,26.6730039 152.629,25.891 C151.110326,25.1089961 149.937337,24.0096737 149.11,22.593 C148.282663,21.1763262 147.869,19.5273427 147.869,17.646 C147.869,15.787324 148.282663,14.1496737 149.11,12.733 C149.937337,11.3163262 151.110326,10.2170039 152.629,9.435 C154.147674,8.65299609 155.904323,8.262 157.899,8.262 C159.893677,8.262 161.650326,8.65299609 163.169,9.435 Z M155.043,14.416 C154.317663,15.2546709 153.955,16.3539932 153.955,17.714 C153.955,19.0966736 154.317663,20.2073291 155.043,21.046 C155.768337,21.8846709 156.720327,22.304 157.899,22.304 C159.100339,22.304 160.063663,21.8846709 160.789,21.046 C161.514337,20.2073291 161.877,19.0966736 161.877,17.714 C161.877,16.3539932 161.50867,15.2546709 160.772,14.416 C160.03533,13.5773291 159.077673,13.158 157.899,13.158 C156.720327,13.158 155.768337,13.5773291 155.043,14.416 Z M200.399,10.132 C201.600339,11.4013397 202.201,13.1126559 202.201,15.266 L202.201,26.86 L196.149,26.86 L196.149,17 C196.149,15.9573281 195.877003,15.1356697 195.333,14.535 C194.788997,13.9343303 194.052338,13.634 193.123,13.634 C192.057661,13.6566668 191.213336,14.0476629 190.59,14.807 C189.966664,15.5663371 189.655,16.5579939 189.655,17.782 L189.655,26.86 L183.603,26.86 L183.603,17 C183.603,15.9573281 183.331003,15.1356697 182.787,14.535 C182.242997,13.9343303 181.506338,13.634 180.577,13.634 C179.511661,13.6566668 178.66167,14.0476629 178.027,14.807 C177.39233,15.5663371 177.075,16.5579939 177.075,17.782 L177.075,26.86 L171.057,26.86 L171.057,8.466 L177.075,8.466 L177.075,11.492 C177.70967,10.4266613 178.531328,9.61633611 179.54,9.061 C180.548672,8.50566389 181.72166,8.228 183.059,8.228 C184.555007,8.228 185.835661,8.59066304 186.901,9.316 C187.966339,10.041337 188.725664,11.0499935 189.179,12.342 C189.768336,10.9819932 190.612661,9.95633679 191.712,9.265 C192.811339,8.57366321 194.108993,8.228 195.605,8.228 C197.599677,8.228 199.197661,8.86266032 200.399,10.132 Z M213.863,8.466 L219.881,8.466 L219.881,26.86 L213.863,26.86 L213.863,8.466 Z M219.116,0.901 C219.71667,1.50166967 220.017,2.27799524 220.017,3.23 C220.017,4.15933798 219.71667,4.92999694 219.116,5.542 C218.51533,6.15400306 217.750338,6.46 216.821,6.46 C215.891662,6.46 215.12667,6.15400306 214.526,5.542 C213.92533,4.92999694 213.625,4.15933798 213.625,3.23 C213.625,2.27799524 213.92533,1.50166967 214.526,0.901 C215.12667,0.30033033 215.891662,-1.59872116e-13 216.821,-1.59872116e-13 C217.750338,-1.59872116e-13 218.51533,0.30033033 219.116,0.901 Z M232.767,13.26 C231.678995,13.26 230.795003,13.6736625 230.115,14.501 C229.434997,15.3283375 229.095,16.3993268 229.095,17.714 C229.095,19.05134 229.434997,20.1279959 230.115,20.944 C230.795003,21.7600041 231.678995,22.168 232.767,22.168 C234.444342,22.168 235.645663,21.4766736 236.371,20.094 L240.825,22.644 C240.099663,24.0493404 239.011674,25.1373295 237.561,25.908 C236.110326,26.6786705 234.410343,27.064 232.461,27.064 C230.579657,27.064 228.925007,26.6786705 227.497,25.908 C226.068993,25.1373295 224.964004,24.0493404 224.182,22.644 C223.399996,21.2386596 223.009,19.606676 223.009,17.748 C223.009,15.8666573 223.405663,14.2063405 224.199,12.767 C224.992337,11.3276595 226.108659,10.2170039 227.548,9.435 C228.987341,8.65299609 230.647657,8.262 232.529,8.262 C234.365009,8.262 235.996993,8.64166287 237.425,9.401 C238.853007,10.1603371 239.963663,11.2313264 240.757,12.614 L236.371,15.164 C235.509662,13.8946603 234.308341,13.26 232.767,13.26 Z M257.417,9.435 C258.935674,10.2170039 260.114329,11.3163262 260.953,12.733 C261.791671,14.1496737 262.211,15.787324 262.211,17.646 C262.211,19.5273427 261.791671,21.1763262 260.953,22.593 C260.114329,24.0096737 258.935674,25.1089961 257.417,25.891 C255.898326,26.6730039 254.141677,27.064 252.147,27.064 C250.152323,27.064 248.395674,26.6730039 246.877,25.891 C245.358326,25.1089961 244.185337,24.0096737 243.358,22.593 C242.530663,21.1763262 242.117,19.5273427 242.117,17.646 C242.117,15.787324 242.530663,14.1496737 243.358,12.733 C244.185337,11.3163262 245.358326,10.2170039 246.877,9.435 C248.395674,8.65299609 250.152323,8.262 252.147,8.262 C254.141677,8.262 255.898326,8.65299609 257.417,9.435 Z M249.291,14.416 C248.565663,15.2546709 248.203,16.3539932 248.203,17.714 C248.203,19.0966736 248.565663,20.2073291 249.291,21.046 C250.016337,21.8846709 250.968327,22.304 252.147,22.304 C253.348339,22.304 254.311663,21.8846709 255.037,21.046 C255.762337,20.2073291 256.125,19.0966736 256.125,17.714 C256.125,16.3539932 255.75667,15.2546709 255.02,14.416 C254.28333,13.5773291 253.325673,13.158 252.147,13.158 C250.968327,13.158 250.016337,13.5773291 249.291,14.416 Z M282.288,10.132 C283.500673,11.4013397 284.107,13.1126559 284.107,15.266 L284.107,26.86 L278.089,26.86 L278.089,17 C278.089,15.9573281 277.80567,15.1356697 277.239,14.535 C276.672331,13.9343303 275.913005,13.634 274.961,13.634 C273.963662,13.6566668 273.142003,13.9853302 272.496,14.62 C271.849997,15.2546698 271.470334,16.0933281 271.357,17.136 L271.357,26.86 L265.305,26.86 L265.305,8.466 L271.357,8.466 L271.357,11.458 C272.014337,10.3926613 272.858662,9.58800272 273.89,9.044 C274.921338,8.49999728 276.10566,8.228 277.443,8.228 C279.460343,8.228 281.075327,8.86266032 282.288,10.132 Z M294.647,12.41 C294.125664,12.41 293.706335,12.5063324 293.389,12.699 C293.071665,12.8916676 292.913,13.1806647 292.913,13.566 C292.913,13.974002 293.162331,14.3026654 293.661,14.552 C294.159669,14.8013346 294.952995,15.0733319 296.041,15.368 C297.355673,15.7533353 298.449329,16.1329981 299.322,16.507 C300.194671,16.8810019 300.94833,17.4476629 301.583,18.207 C302.21767,18.9663371 302.535,19.9579939 302.535,21.182 C302.535,23.040676 301.815341,24.4969947 300.376,25.551 C298.936659,26.6050053 297.061012,27.132 294.749,27.132 C293.184992,27.132 291.689007,26.9110022 290.261,26.469 C288.832993,26.0269978 287.563672,25.3753376 286.453,24.514 L288.357,20.604 C289.399672,21.329337 290.493328,21.8903313 291.638,22.287 C292.782672,22.6836686 293.864995,22.882 294.885,22.882 C295.474336,22.882 295.944665,22.7856676 296.296,22.593 C296.647335,22.4003324 296.823,22.1226685 296.823,21.76 C296.823,21.3066644 296.568003,20.9553346 296.058,20.706 C295.547997,20.4566654 294.749005,20.1846681 293.661,19.89 C292.368994,19.5046647 291.303671,19.1250019 290.465,18.751 C289.626329,18.3769981 288.895336,17.8160037 288.272,17.068 C287.648664,16.3199963 287.337,15.3453393 287.337,14.144 C287.337,12.285324 288.03966,10.8290053 289.445,9.775 C290.85034,8.72099473 292.663656,8.194 294.885,8.194 C296.22234,8.194 297.54266,8.37533152 298.846,8.738 C300.14934,9.10066848 301.378994,9.63332982 302.535,10.336 L300.495,14.28 C298.114988,13.0333271 296.165674,12.41 294.647,12.41 Z" id="Custom-icons"></path><path d="M6.664,49.967 C6.16933086,49.7476656 5.66066928,49.638 5.138,49.638 C4.44732988,49.638 3.81266956,49.8059983 3.234,50.142 C2.65533044,50.4780017 2.19800168,50.9329971 1.862,51.507 C1.52599832,52.0810029 1.358,52.7133299 1.358,53.404 C1.358,54.0853367 1.52599832,54.7153304 1.862,55.294 C2.19800168,55.8726696 2.65533044,56.3299983 3.234,56.666 C3.81266956,57.0020017 4.44732988,57.17 5.138,57.17 C5.6513359,57.17 6.15533086,57.0650011 6.65,56.855 C7.14466914,56.644999 7.58333142,56.3580018 7.966,55.994 L8.778,56.876 C8.28333086,57.3613358 7.7093366,57.7416653 7.056,58.017 C6.4026634,58.2923347 5.74000336,58.43 5.068,58.43 C4.134662,58.43 3.28067054,58.2083356 2.506,57.765 C1.73132946,57.3216645 1.12000224,56.7173372 0.672,55.952 C0.22399776,55.1866628 0,54.3420046 0,53.418 C0,52.5033288 0.22633107,51.6656705 0.679,50.905 C1.13166893,50.1443295 1.74999608,49.5446689 2.534,49.106 C3.31800392,48.6673311 4.18132862,48.448 5.124,48.448 C5.80533674,48.448 6.46566347,48.5763321 7.105,48.833 C7.74433653,49.089668 8.297331,49.451331 8.764,49.918 L7.966,50.884 C7.5926648,50.491998 7.15866914,50.1863344 6.664,49.967 Z M17.08,50.926 L17.08,58.332 L15.764,58.332 L15.764,56.764 C15.2786642,57.8186719 14.3640067,58.3553332 13.02,58.374 C12.161329,58.374 11.4893358,58.1196692 11.004,57.611 C10.5186642,57.1023308 10.276,56.4000045 10.276,55.504 L10.276,50.926 L11.592,50.926 L11.592,55.154 C11.592,55.7793365 11.7623316,56.2669983 12.103,56.617 C12.4436684,56.9670018 12.9126637,57.142 13.51,57.142 C14.2006701,57.1326666 14.748998,56.8876691 15.155,56.407 C15.561002,55.9263309 15.764,55.3126704 15.764,54.566 L15.764,50.926 L17.08,50.926 Z M22.645,52.116 C22.2763315,52.0039994 21.9240017,51.948 21.588,51.948 C21.195998,51.948 20.8810012,52.0203326 20.643,52.165 C20.4049988,52.3096674 20.286,52.5313318 20.286,52.83 C20.286,53.1286682 20.4189987,53.3549992 20.685,53.509 C20.9510013,53.6630008 21.354664,53.8193325 21.896,53.978 C22.4093359,54.1273341 22.8293317,54.2766659 23.156,54.426 C23.4826683,54.5753341 23.7603322,54.7946652 23.989,55.084 C24.2176678,55.3733348 24.332,55.7559976 24.332,56.232 C24.332,56.9320035 24.068336,57.4639982 23.541,57.828 C23.013664,58.1920018 22.3580039,58.374 21.574,58.374 C21.0233306,58.374 20.4890026,58.2853342 19.971,58.108 C19.4529974,57.9306658 19.0166684,57.6786683 18.662,57.352 L19.152,56.4 C19.4600015,56.6800014 19.8403311,56.9039992 20.293,57.072 C20.7456689,57.2400008 21.1866645,57.324 21.616,57.324 C22.0453355,57.324 22.3906654,57.2446675 22.652,57.086 C22.9133346,56.9273325 23.044,56.6846683 23.044,56.358 C23.044,56.0219983 22.9063347,55.7700008 22.631,55.602 C22.3556653,55.4339992 21.9380028,55.2660008 21.378,55.098 C20.8833309,54.9579993 20.4796682,54.8156674 20.167,54.671 C19.8543318,54.5263326 19.5883344,54.3140014 19.369,54.034 C19.1496656,53.7539986 19.04,53.3900022 19.04,52.942 C19.04,52.2513299 19.2919975,51.7333351 19.796,51.388 C20.3000025,51.0426649 20.9299962,50.87 21.686,50.87 C22.1340022,50.87 22.5749978,50.9329994 23.009,51.059 C23.4430022,51.1850006 23.8186651,51.3553323 24.136,51.57 L23.66,52.564 C23.3519985,52.3773324 23.0136685,52.2280006 22.645,52.116 Z M30.03,57.842 C29.4606638,58.2060018 28.8820029,58.388 28.294,58.388 C27.7059971,58.388 27.2300018,58.2130018 26.866,57.863 C26.5019982,57.5129983 26.32,56.9833369 26.32,56.274 L26.32,52.172 L25.27,52.172 L25.27,51.178 L26.32,51.178 L26.32,49.19 L27.636,49.19 L27.636,51.178 L29.904,51.178 L29.904,52.172 L27.636,52.172 L27.636,56.036 C27.636,56.4466687 27.7106659,56.7406658 27.86,56.918 C28.0093341,57.0953342 28.2333318,57.184 28.532,57.184 C28.8866684,57.184 29.2693313,57.0673345 29.68,56.834 L30.03,57.842 Z M36.659,51.36 C37.2330029,51.6773349 37.6809984,52.1183305 38.003,52.683 C38.3250016,53.2476695 38.486,53.8939964 38.486,54.622 C38.486,55.3500036 38.3250016,55.9986638 38.003,56.568 C37.6809984,57.1373362 37.2330029,57.5806651 36.659,57.898 C36.0849971,58.2153349 35.429337,58.374 34.692,58.374 C33.9453296,58.374 33.2850029,58.2153349 32.711,57.898 C32.1369971,57.5806651 31.6890016,57.1396695 31.367,56.575 C31.0449984,56.0103305 30.884,55.359337 30.884,54.622 C30.884,53.8939964 31.0449984,53.2476695 31.367,52.683 C31.6890016,52.1183305 32.1369971,51.6773349 32.711,51.36 C33.2850029,51.0426651 33.9453296,50.884 34.692,50.884 C35.429337,50.884 36.0849971,51.0426651 36.659,51.36 Z M33.397,52.354 C33.0189981,52.5780011 32.725001,52.8883314 32.515,53.285 C32.304999,53.6816687 32.2,54.1319975 32.2,54.636 C32.2,55.1493359 32.304999,55.6066647 32.515,56.008 C32.725001,56.4093353 33.0189981,56.7196656 33.397,56.939 C33.7750019,57.1583344 34.2066642,57.268 34.692,57.268 C35.1680024,57.268 35.5949981,57.1583344 35.973,56.939 C36.3510019,56.7196656 36.6449989,56.4093353 36.855,56.008 C37.065001,55.6066647 37.17,55.1493359 37.17,54.636 C37.17,54.1319975 37.065001,53.6816687 36.855,53.285 C36.6449989,52.8883314 36.3510019,52.5780011 35.973,52.354 C35.5949981,52.1299989 35.1680024,52.018 34.692,52.018 C34.2066642,52.018 33.7750019,52.1299989 33.397,52.354 Z M51.87,51.654 C52.3553358,52.1673359 52.598,52.8673289 52.598,53.754 L52.598,58.332 L51.282,58.332 L51.282,54.104 C51.282,53.4786635 51.1116684,52.9886684 50.771,52.634 C50.4303316,52.2793316 49.9613363,52.102 49.364,52.102 C48.6639965,52.1206668 48.1133353,52.3679976 47.712,52.844 C47.3106647,53.3200024 47.11,53.9313296 47.11,54.678 L47.11,58.332 L45.794,58.332 L45.794,54.104 C45.794,53.4786635 45.6260017,52.9886684 45.29,52.634 C44.9539983,52.2793316 44.4826697,52.102 43.876,52.102 C43.1759965,52.1206668 42.623002,52.3679976 42.217,52.844 C41.810998,53.3200024 41.608,53.9313296 41.608,54.678 L41.608,58.332 L40.306,58.332 L40.306,50.926 L41.608,50.926 L41.608,52.48 C42.0933358,51.4346614 43.0126599,50.9026668 44.366,50.884 C45.0473367,50.884 45.6143311,51.0473317 46.067,51.374 C46.5196689,51.7006683 46.8253325,52.1579971 46.984,52.746 C47.4413356,51.5233272 48.4026593,50.9026668 49.868,50.884 C50.7173376,50.884 51.3846642,51.1406641 51.87,51.654 Z M61.67,52.046 C61.1846642,52.046 60.7530019,52.1533323 60.375,52.368 C59.9969981,52.5826677 59.7006677,52.885998 59.486,53.278 C59.2713323,53.670002 59.164,54.1226641 59.164,54.636 C59.164,55.1493359 59.268999,55.601998 59.479,55.994 C59.6890011,56.386002 59.9783315,56.6916656 60.347,56.911 C60.7156685,57.1303344 61.1379976,57.24 61.614,57.24 C62.0900024,57.24 62.5193314,57.1606675 62.902,57.002 C63.2846686,56.8433325 63.6019987,56.6146682 63.854,56.316 L64.596,57.072 C64.2599983,57.4920021 63.8330026,57.8139989 63.315,58.038 C62.7969974,58.2620011 62.2113366,58.374 61.558,58.374 C60.8393297,58.374 60.2000028,58.2153349 59.64,57.898 C59.0799972,57.5806651 58.6436682,57.1396695 58.331,56.575 C58.0183318,56.0103305 57.862,55.3640036 57.862,54.636 C57.862,53.9079964 58.0183318,53.2593362 58.331,52.69 C58.6436682,52.1206638 59.0799972,51.6773349 59.64,51.36 C60.2000028,51.0426651 60.8393297,50.884 61.558,50.884 C62.1833365,50.884 62.7456642,50.9796657 63.245,51.171 C63.7443358,51.3623343 64.1619983,51.6399982 64.498,52.004 L63.784,52.9 C63.1959971,52.3306638 62.4913374,52.046 61.67,52.046 Z M68.796,51.311 C69.2440022,51.0356653 69.7759969,50.8933334 70.392,50.884 L70.392,52.144 C69.6359962,52.1159999 69.024669,52.3119979 68.558,52.732 C68.091331,53.1520021 67.8253337,53.7166631 67.76,54.426 L67.76,58.332 L66.458,58.332 L66.458,50.926 L67.76,50.926 L67.76,52.522 C68.0026679,51.9899973 68.3479978,51.5863347 68.796,51.311 Z M77.378,51.899 C77.9660029,52.5756701 78.26,53.515994 78.26,54.72 C78.26,54.9066676 78.2553334,55.0466662 78.246,55.14 L72.394,55.14 C72.4966672,55.80267 72.7743311,56.329998 73.227,56.722 C73.6796689,57.114002 74.23733,57.31 74.9,57.31 C75.3386689,57.31 75.7469981,57.2306675 76.125,57.072 C76.5030019,56.9133325 76.8319986,56.6893348 77.112,56.4 L77.826,57.142 C77.4619982,57.534002 77.0233359,57.8373323 76.51,58.052 C75.9966641,58.2666677 75.4273365,58.374 74.802,58.374 C74.0739964,58.374 73.4276695,58.2176682 72.863,57.905 C72.2983305,57.5923318 71.8596682,57.1513362 71.547,56.582 C71.2343318,56.0126638 71.078,55.3640036 71.078,54.636 C71.078,53.9079964 71.2343318,53.2616695 71.547,52.697 C71.8596682,52.1323305 72.2959972,51.6890016 72.856,51.367 C73.4160028,51.0449984 74.0553297,50.884 74.774,50.884 C75.9220057,50.884 76.7899971,51.22233 77.378,51.899 Z M77.084,54.132 C77.0466665,53.4599966 76.8226687,52.9303353 76.412,52.543 C76.0013313,52.1556647 75.4600034,51.962 74.788,51.962 C74.1346634,51.962 73.5910022,52.157998 73.157,52.55 C72.7229978,52.942002 72.4640004,53.46933 72.38,54.132 L77.084,54.132 Z M84.56,58.332 L84.56,57.296 C84.0093306,58.0240036 83.1460059,58.388 81.97,58.388 C81.4566641,58.388 81.0063353,58.290001 80.619,58.094 C80.2316647,57.897999 79.9330011,57.6273351 79.723,57.282 C79.512999,56.9366649 79.408,56.5493355 79.408,56.12 C79.408,55.45733 79.6529976,54.9323353 80.143,54.545 C80.6330025,54.1576647 81.3166623,53.9593334 82.194,53.95 L84.546,53.95 L84.546,53.6 C84.546,53.0773307 84.3850016,52.6736681 84.063,52.389 C83.7409984,52.1043319 83.2720031,51.962 82.656,51.962 C81.9093296,51.962 81.1486705,52.2279973 80.374,52.76 L79.828,51.864 C80.3600027,51.5186649 80.8523311,51.2690008 81.305,51.115 C81.7576689,50.9609992 82.2966635,50.884 82.922,50.884 C83.8460046,50.884 84.5599975,51.1103311 85.064,51.563 C85.5680025,52.0156689 85.8246666,52.6479959 85.834,53.46 L85.848,58.332 L84.56,58.332 Z M83.783,56.869 C84.2076688,56.5749985 84.4619996,56.1853358 84.546,55.7 L84.546,54.958 L82.376,54.958 C81.7879971,54.958 81.3516681,55.0466658 81.067,55.224 C80.7823319,55.4013342 80.64,55.6813314 80.64,56.064 C80.64,56.4466686 80.7846652,56.7499989 81.074,56.974 C81.3633348,57.1980011 81.7506642,57.31 82.236,57.31 C82.8426697,57.31 83.3583312,57.1630015 83.783,56.869 Z M92.148,57.842 C91.5786638,58.2060018 91.0000029,58.388 90.412,58.388 C89.8239971,58.388 89.3480018,58.2130018 88.984,57.863 C88.6199982,57.5129983 88.438,56.9833369 88.438,56.274 L88.438,52.172 L87.388,52.172 L87.388,51.178 L88.438,51.178 L88.438,49.19 L89.754,49.19 L89.754,51.178 L92.022,51.178 L92.022,52.172 L89.754,52.172 L89.754,56.036 C89.754,56.4466687 89.8286659,56.7406658 89.978,56.918 C90.1273341,57.0953342 90.3513318,57.184 90.65,57.184 C91.0046684,57.184 91.3873313,57.0673345 91.798,56.834 L92.148,57.842 Z M99.302,51.899 C99.8900029,52.5756701 100.184,53.515994 100.184,54.72 C100.184,54.9066676 100.179333,55.0466662 100.17,55.14 L94.318,55.14 C94.4206672,55.80267 94.6983311,56.329998 95.151,56.722 C95.6036689,57.114002 96.16133,57.31 96.824,57.31 C97.2626689,57.31 97.6709981,57.2306675 98.049,57.072 C98.4270019,56.9133325 98.7559986,56.6893348 99.036,56.4 L99.75,57.142 C99.3859982,57.534002 98.9473359,57.8373323 98.434,58.052 C97.9206641,58.2666677 97.3513365,58.374 96.726,58.374 C95.9979964,58.374 95.3516695,58.2176682 94.787,57.905 C94.2223305,57.5923318 93.7836682,57.1513362 93.471,56.582 C93.1583318,56.0126638 93.002,55.3640036 93.002,54.636 C93.002,53.9079964 93.1583318,53.2616695 93.471,52.697 C93.7836682,52.1323305 94.2199972,51.6890016 94.78,51.367 C95.3400028,51.0449984 95.9793297,50.884 96.698,50.884 C97.8460057,50.884 98.7139971,51.22233 99.302,51.899 Z M99.008,54.132 C98.9706665,53.4599966 98.7466687,52.9303353 98.336,52.543 C97.9253313,52.1556647 97.3840034,51.962 96.712,51.962 C96.0586634,51.962 95.5150022,52.157998 95.081,52.55 C94.6469978,52.942002 94.3880004,53.46933 94.304,54.132 L99.008,54.132 Z M108.864,47.944 L108.864,58.332 L107.562,58.332 L107.562,56.862 C107.281999,57.3566691 106.906336,57.7369987 106.435,58.003 C105.963664,58.2690013 105.415336,58.402 104.79,58.402 C104.089996,58.402 103.471669,58.2410016 102.935,57.919 C102.398331,57.5969984 101.980668,57.1490029 101.682,56.575 C101.383332,56.0009971 101.234,55.345337 101.234,54.608 C101.234,53.8799964 101.383332,53.2336695 101.682,52.669 C101.980668,52.1043305 102.398331,51.6633349 102.935,51.346 C103.471669,51.0286651 104.08533,50.87 104.776,50.87 C105.41067,50.87 105.965998,51.0006654 106.442,51.262 C106.918002,51.5233346 107.291332,51.9013309 107.562,52.396 L107.562,47.944 L108.864,47.944 Z M106.351,56.946 C106.729002,56.7219989 107.025332,56.4093353 107.24,56.008 C107.454668,55.6066647 107.562,55.1540025 107.562,54.65 C107.562,54.1366641 107.454668,53.6793353 107.24,53.278 C107.025332,52.8766647 106.729002,52.5640011 106.351,52.34 C105.972998,52.1159989 105.541336,52.004 105.056,52.004 C104.570664,52.004 104.139002,52.1183322 103.761,52.347 C103.382998,52.5756678 103.086668,52.8906647 102.872,53.292 C102.657332,53.6933353 102.55,54.1459975 102.55,54.65 C102.55,55.1540025 102.657332,55.6066647 102.872,56.008 C103.086668,56.4093353 103.382998,56.7219989 103.761,56.946 C104.139002,57.1700011 104.570664,57.282 105.056,57.282 C105.541336,57.282 105.972998,57.1700011 106.351,56.946 Z M115.15,50.926 L116.452,50.926 L116.452,58.332 L115.15,58.332 L115.15,50.926 Z M116.375,48.21 C116.529001,48.3686675 116.606,48.5693321 116.606,48.812 C116.606,49.0546679 116.529001,49.2553325 116.375,49.414 C116.220999,49.5726675 116.027335,49.652 115.794,49.652 C115.560665,49.652 115.367001,49.5726675 115.213,49.414 C115.058999,49.2553325 114.982,49.0546679 114.982,48.812 C114.982,48.5693321 115.058999,48.3686675 115.213,48.21 C115.367001,48.0513325 115.560665,47.972 115.794,47.972 C116.027335,47.972 116.220999,48.0513325 116.375,48.21 Z M122.066,52.046 C121.580664,52.046 121.149002,52.1533323 120.771,52.368 C120.392998,52.5826677 120.096668,52.885998 119.882,53.278 C119.667332,53.670002 119.56,54.1226641 119.56,54.636 C119.56,55.1493359 119.664999,55.601998 119.875,55.994 C120.085001,56.386002 120.374331,56.6916656 120.743,56.911 C121.111669,57.1303344 121.533998,57.24 122.01,57.24 C122.486002,57.24 122.915331,57.1606675 123.298,57.002 C123.680669,56.8433325 123.997999,56.6146682 124.25,56.316 L124.992,57.072 C124.655998,57.4920021 124.229003,57.8139989 123.711,58.038 C123.192997,58.2620011 122.607337,58.374 121.954,58.374 C121.23533,58.374 120.596003,58.2153349 120.036,57.898 C119.475997,57.5806651 119.039668,57.1396695 118.727,56.575 C118.414332,56.0103305 118.258,55.3640036 118.258,54.636 C118.258,53.9079964 118.414332,53.2593362 118.727,52.69 C119.039668,52.1206638 119.475997,51.6773349 120.036,51.36 C120.596003,51.0426651 121.23533,50.884 121.954,50.884 C122.579336,50.884 123.141664,50.9796657 123.641,51.171 C124.140336,51.3623343 124.557998,51.6399982 124.894,52.004 L124.18,52.9 C123.591997,52.3306638 122.887337,52.046 122.066,52.046 Z M131.901,51.36 C132.475003,51.6773349 132.922998,52.1183305 133.245,52.683 C133.567002,53.2476695 133.728,53.8939964 133.728,54.622 C133.728,55.3500036 133.567002,55.9986638 133.245,56.568 C132.922998,57.1373362 132.475003,57.5806651 131.901,57.898 C131.326997,58.2153349 130.671337,58.374 129.934,58.374 C129.18733,58.374 128.527003,58.2153349 127.953,57.898 C127.378997,57.5806651 126.931002,57.1396695 126.609,56.575 C126.286998,56.0103305 126.126,55.359337 126.126,54.622 C126.126,53.8939964 126.286998,53.2476695 126.609,52.683 C126.931002,52.1183305 127.378997,51.6773349 127.953,51.36 C128.527003,51.0426651 129.18733,50.884 129.934,50.884 C130.671337,50.884 131.326997,51.0426651 131.901,51.36 Z M128.639,52.354 C128.260998,52.5780011 127.967001,52.8883314 127.757,53.285 C127.546999,53.6816687 127.442,54.1319975 127.442,54.636 C127.442,55.1493359 127.546999,55.6066647 127.757,56.008 C127.967001,56.4093353 128.260998,56.7196656 128.639,56.939 C129.017002,57.1583344 129.448664,57.268 129.934,57.268 C130.410002,57.268 130.836998,57.1583344 131.215,56.939 C131.593002,56.7196656 131.886999,56.4093353 132.097,56.008 C132.307001,55.6066647 132.412,55.1493359 132.412,54.636 C132.412,54.1319975 132.307001,53.6816687 132.097,53.285 C131.886999,52.8883314 131.593002,52.5780011 131.215,52.354 C130.836998,52.1299989 130.410002,52.018 129.934,52.018 C129.448664,52.018 129.017002,52.1299989 128.639,52.354 Z M141.708,51.647 C142.202669,52.1556692 142.45,52.8579955 142.45,53.754 L142.45,58.332 L141.148,58.332 L141.148,54.104 C141.148,53.4786635 140.973002,52.9910018 140.623,52.641 C140.272998,52.2909983 139.790003,52.116 139.174,52.116 C138.51133,52.1253334 137.972335,52.3376646 137.557,52.753 C137.141665,53.1683354 136.906,53.70733 136.85,54.37 L136.85,58.332 L135.548,58.332 L135.548,50.926 L136.85,50.926 L136.85,52.494 C137.344669,51.4393281 138.28266,50.9026668 139.664,50.884 C140.532004,50.884 141.213331,51.1383308 141.708,51.647 Z M147.805,52.116 C147.436331,52.0039994 147.084002,51.948 146.748,51.948 C146.355998,51.948 146.041001,52.0203326 145.803,52.165 C145.564999,52.3096674 145.446,52.5313318 145.446,52.83 C145.446,53.1286682 145.578999,53.3549992 145.845,53.509 C146.111001,53.6630008 146.514664,53.8193325 147.056,53.978 C147.569336,54.1273341 147.989332,54.2766659 148.316,54.426 C148.642668,54.5753341 148.920332,54.7946652 149.149,55.084 C149.377668,55.3733348 149.492,55.7559976 149.492,56.232 C149.492,56.9320035 149.228336,57.4639982 148.701,57.828 C148.173664,58.1920018 147.518004,58.374 146.734,58.374 C146.183331,58.374 145.649003,58.2853342 145.131,58.108 C144.612997,57.9306658 144.176668,57.6786683 143.822,57.352 L144.312,56.4 C144.620002,56.6800014 145.000331,56.9039992 145.453,57.072 C145.905669,57.2400008 146.346665,57.324 146.776,57.324 C147.205335,57.324 147.550665,57.2446675 147.812,57.086 C148.073335,56.9273325 148.204,56.6846683 148.204,56.358 C148.204,56.0219983 148.066335,55.7700008 147.791,55.602 C147.515665,55.4339992 147.098003,55.2660008 146.538,55.098 C146.043331,54.9579993 145.639668,54.8156674 145.327,54.671 C145.014332,54.5263326 144.748334,54.3140014 144.529,54.034 C144.309666,53.7539986 144.2,53.3900022 144.2,52.942 C144.2,52.2513299 144.451997,51.7333351 144.956,51.388 C145.460003,51.0426649 146.089996,50.87 146.846,50.87 C147.294002,50.87 147.734998,50.9329994 148.169,51.059 C148.603002,51.1850006 148.978665,51.3553323 149.296,51.57 L148.82,52.564 C148.511998,52.3773324 148.173669,52.2280006 147.805,52.116 Z M157.962,52.046 C157.476664,52.046 157.045002,52.1533323 156.667,52.368 C156.288998,52.5826677 155.992668,52.885998 155.778,53.278 C155.563332,53.670002 155.456,54.1226641 155.456,54.636 C155.456,55.1493359 155.560999,55.601998 155.771,55.994 C155.981001,56.386002 156.270331,56.6916656 156.639,56.911 C157.007669,57.1303344 157.429998,57.24 157.906,57.24 C158.382002,57.24 158.811331,57.1606675 159.194,57.002 C159.576669,56.8433325 159.893999,56.6146682 160.146,56.316 L160.888,57.072 C160.551998,57.4920021 160.125003,57.8139989 159.607,58.038 C159.088997,58.2620011 158.503337,58.374 157.85,58.374 C157.13133,58.374 156.492003,58.2153349 155.932,57.898 C155.371997,57.5806651 154.935668,57.1396695 154.623,56.575 C154.310332,56.0103305 154.154,55.3640036 154.154,54.636 C154.154,53.9079964 154.310332,53.2593362 154.623,52.69 C154.935668,52.1206638 155.371997,51.6773349 155.932,51.36 C156.492003,51.0426651 157.13133,50.884 157.85,50.884 C158.475336,50.884 159.037664,50.9796657 159.537,51.171 C160.036336,51.3623343 160.453998,51.6399982 160.79,52.004 L160.076,52.9 C159.487997,52.3306638 158.783337,52.046 157.962,52.046 Z M165.088,51.311 C165.536002,51.0356653 166.067997,50.8933334 166.684,50.884 L166.684,52.144 C165.927996,52.1159999 165.316669,52.3119979 164.85,52.732 C164.383331,53.1520021 164.117334,53.7166631 164.052,54.426 L164.052,58.332 L162.75,58.332 L162.75,50.926 L164.052,50.926 L164.052,52.522 C164.294668,51.9899973 164.639998,51.5863347 165.088,51.311 Z M172.62,58.332 L172.62,57.296 C172.069331,58.0240036 171.206006,58.388 170.03,58.388 C169.516664,58.388 169.066335,58.290001 168.679,58.094 C168.291665,57.897999 167.993001,57.6273351 167.783,57.282 C167.572999,56.9366649 167.468,56.5493355 167.468,56.12 C167.468,55.45733 167.712998,54.9323353 168.203,54.545 C168.693002,54.1576647 169.376662,53.9593334 170.254,53.95 L172.606,53.95 L172.606,53.6 C172.606,53.0773307 172.445002,52.6736681 172.123,52.389 C171.800998,52.1043319 171.332003,51.962 170.716,51.962 C169.96933,51.962 169.208671,52.2279973 168.434,52.76 L167.888,51.864 C168.420003,51.5186649 168.912331,51.2690008 169.365,51.115 C169.817669,50.9609992 170.356664,50.884 170.982,50.884 C171.906005,50.884 172.619997,51.1103311 173.124,51.563 C173.628003,52.0156689 173.884667,52.6479959 173.894,53.46 L173.908,58.332 L172.62,58.332 Z M171.843,56.869 C172.267669,56.5749985 172.522,56.1853358 172.606,55.7 L172.606,54.958 L170.436,54.958 C169.847997,54.958 169.411668,55.0466658 169.127,55.224 C168.842332,55.4013342 168.7,55.6813314 168.7,56.064 C168.7,56.4466686 168.844665,56.7499989 169.134,56.974 C169.423335,57.1980011 169.810664,57.31 170.296,57.31 C170.90267,57.31 171.418331,57.1630015 171.843,56.869 Z M178.122,49.33 C177.897999,49.5353344 177.786,49.8293314 177.786,50.212 L177.786,51.178 L179.83,51.178 L179.83,52.172 L177.786,52.172 L177.786,58.332 L176.484,58.332 L176.484,52.172 L175.518,52.172 L175.518,51.178 L176.484,51.178 L176.484,50.38 C176.484,49.838664 176.598332,49.3790019 176.827,49.001 C177.055668,48.6229981 177.356665,48.3383343 177.73,48.147 C178.103335,47.9556657 178.504665,47.86 178.934,47.86 C179.344669,47.86 179.773998,47.9719989 180.222,48.196 L179.914,49.26 C179.577998,49.1013325 179.260668,49.022 178.962,49.022 C178.625998,49.022 178.346001,49.1246656 178.122,49.33 Z M184.996,57.842 C184.426664,58.2060018 183.848003,58.388 183.26,58.388 C182.671997,58.388 182.196002,58.2130018 181.832,57.863 C181.467998,57.5129983 181.286,56.9833369 181.286,56.274 L181.286,52.172 L180.236,52.172 L180.236,51.178 L181.286,51.178 L181.286,49.19 L182.602,49.19 L182.602,51.178 L184.87,51.178 L184.87,52.172 L182.602,52.172 L182.602,56.036 C182.602,56.4466687 182.676666,56.7406658 182.826,56.918 C182.975334,57.0953342 183.199332,57.184 183.498,57.184 C183.852668,57.184 184.235331,57.0673345 184.646,56.834 L184.996,57.842 Z M192.15,51.899 C192.738003,52.5756701 193.032,53.515994 193.032,54.72 C193.032,54.9066676 193.027333,55.0466662 193.018,55.14 L187.166,55.14 C187.268667,55.80267 187.546331,56.329998 187.999,56.722 C188.451669,57.114002 189.00933,57.31 189.672,57.31 C190.110669,57.31 190.518998,57.2306675 190.897,57.072 C191.275002,56.9133325 191.603999,56.6893348 191.884,56.4 L192.598,57.142 C192.233998,57.534002 191.795336,57.8373323 191.282,58.052 C190.768664,58.2666677 190.199336,58.374 189.574,58.374 C188.845996,58.374 188.199669,58.2176682 187.635,57.905 C187.070331,57.5923318 186.631668,57.1513362 186.319,56.582 C186.006332,56.0126638 185.85,55.3640036 185.85,54.636 C185.85,53.9079964 186.006332,53.2616695 186.319,52.697 C186.631668,52.1323305 187.067997,51.6890016 187.628,51.367 C188.188003,51.0449984 188.82733,50.884 189.546,50.884 C190.694006,50.884 191.561997,51.22233 192.15,51.899 Z M191.856,54.132 C191.818666,53.4599966 191.594669,52.9303353 191.184,52.543 C190.773331,52.1556647 190.232003,51.962 189.56,51.962 C188.906663,51.962 188.363002,52.157998 187.929,52.55 C187.494998,52.942002 187.236,53.46933 187.152,54.132 L191.856,54.132 Z M201.712,47.944 L201.712,58.332 L200.41,58.332 L200.41,56.862 C200.129999,57.3566691 199.754336,57.7369987 199.283,58.003 C198.811664,58.2690013 198.263336,58.402 197.638,58.402 C196.937997,58.402 196.319669,58.2410016 195.783,57.919 C195.246331,57.5969984 194.828668,57.1490029 194.53,56.575 C194.231332,56.0009971 194.082,55.345337 194.082,54.608 C194.082,53.8799964 194.231332,53.2336695 194.53,52.669 C194.828668,52.1043305 195.246331,51.6633349 195.783,51.346 C196.319669,51.0286651 196.93333,50.87 197.624,50.87 C198.25867,50.87 198.813998,51.0006654 199.29,51.262 C199.766002,51.5233346 200.139332,51.9013309 200.41,52.396 L200.41,47.944 L201.712,47.944 Z M199.199,56.946 C199.577002,56.7219989 199.873332,56.4093353 200.088,56.008 C200.302668,55.6066647 200.41,55.1540025 200.41,54.65 C200.41,54.1366641 200.302668,53.6793353 200.088,53.278 C199.873332,52.8766647 199.577002,52.5640011 199.199,52.34 C198.820998,52.1159989 198.389336,52.004 197.904,52.004 C197.418664,52.004 196.987002,52.1183322 196.609,52.347 C196.230998,52.5756678 195.934668,52.8906647 195.72,53.292 C195.505332,53.6933353 195.398,54.1459975 195.398,54.65 C195.398,55.1540025 195.505332,55.6066647 195.72,56.008 C195.934668,56.4093353 196.230998,56.7219989 196.609,56.946 C196.987002,57.1700011 197.418664,57.282 197.904,57.282 C198.389336,57.282 198.820998,57.1700011 199.199,56.946 Z M209.888,49.33 C209.663999,49.5353344 209.552,49.8293314 209.552,50.212 L209.552,51.178 L211.596,51.178 L211.596,52.172 L209.552,52.172 L209.552,58.332 L208.25,58.332 L208.25,52.172 L207.284,52.172 L207.284,51.178 L208.25,51.178 L208.25,50.38 C208.25,49.838664 208.364332,49.3790019 208.593,49.001 C208.821668,48.6229981 209.122665,48.3383343 209.496,48.147 C209.869335,47.9556657 210.270665,47.86 210.7,47.86 C211.110669,47.86 211.539998,47.9719989 211.988,48.196 L211.68,49.26 C211.343998,49.1013325 211.026668,49.022 210.728,49.022 C210.391998,49.022 210.112001,49.1246656 209.888,49.33 Z M217.833,51.36 C218.407003,51.6773349 218.854998,52.1183305 219.177,52.683 C219.499002,53.2476695 219.66,53.8939964 219.66,54.622 C219.66,55.3500036 219.499002,55.9986638 219.177,56.568 C218.854998,57.1373362 218.407003,57.5806651 217.833,57.898 C217.258997,58.2153349 216.603337,58.374 215.866,58.374 C215.11933,58.374 214.459003,58.2153349 213.885,57.898 C213.310997,57.5806651 212.863002,57.1396695 212.541,56.575 C212.218998,56.0103305 212.058,55.359337 212.058,54.622 C212.058,53.8939964 212.218998,53.2476695 212.541,52.683 C212.863002,52.1183305 213.310997,51.6773349 213.885,51.36 C214.459003,51.0426651 215.11933,50.884 215.866,50.884 C216.603337,50.884 217.258997,51.0426651 217.833,51.36 Z M214.571,52.354 C214.192998,52.5780011 213.899001,52.8883314 213.689,53.285 C213.478999,53.6816687 213.374,54.1319975 213.374,54.636 C213.374,55.1493359 213.478999,55.6066647 213.689,56.008 C213.899001,56.4093353 214.192998,56.7196656 214.571,56.939 C214.949002,57.1583344 215.380664,57.268 215.866,57.268 C216.342002,57.268 216.768998,57.1583344 217.147,56.939 C217.525002,56.7196656 217.818999,56.4093353 218.029,56.008 C218.239001,55.6066647 218.344,55.1493359 218.344,54.636 C218.344,54.1319975 218.239001,53.6816687 218.029,53.285 C217.818999,52.8883314 217.525002,52.5780011 217.147,52.354 C216.768998,52.1299989 216.342002,52.018 215.866,52.018 C215.380664,52.018 214.949002,52.1299989 214.571,52.354 Z M223.818,51.311 C224.266002,51.0356653 224.797997,50.8933334 225.414,50.884 L225.414,52.144 C224.657996,52.1159999 224.046669,52.3119979 223.58,52.732 C223.113331,53.1520021 222.847334,53.7166631 222.782,54.426 L222.782,58.332 L221.48,58.332 L221.48,50.926 L222.782,50.926 L222.782,52.522 C223.024668,51.9899973 223.369998,51.5863347 223.818,51.311 Z M232.155,60.67 C231.767665,60.9593348 231.312669,61.104 230.79,61.104 C230.472665,61.104 230.183335,61.0573338 229.922,60.964 C229.660665,60.8706662 229.408668,60.726001 229.166,60.53 L229.726,59.508 C230.052668,59.7413345 230.383998,59.858 230.72,59.858 C231.280003,59.858 231.699999,59.5406698 231.98,58.906 L232.26,58.248 L229.194,50.926 L230.566,50.926 L232.918,56.862 L235.144,50.926 L236.474,50.926 L233.086,59.382 C232.852666,59.9513362 232.542335,60.3806652 232.155,60.67 Z M242.739,51.36 C243.313003,51.6773349 243.760998,52.1183305 244.083,52.683 C244.405002,53.2476695 244.566,53.8939964 244.566,54.622 C244.566,55.3500036 244.405002,55.9986638 244.083,56.568 C243.760998,57.1373362 243.313003,57.5806651 242.739,57.898 C242.164997,58.2153349 241.509337,58.374 240.772,58.374 C240.02533,58.374 239.365003,58.2153349 238.791,57.898 C238.216997,57.5806651 237.769002,57.1396695 237.447,56.575 C237.124998,56.0103305 236.964,55.359337 236.964,54.622 C236.964,53.8939964 237.124998,53.2476695 237.447,52.683 C237.769002,52.1183305 238.216997,51.6773349 238.791,51.36 C239.365003,51.0426651 240.02533,50.884 240.772,50.884 C241.509337,50.884 242.164997,51.0426651 242.739,51.36 Z M239.477,52.354 C239.098998,52.5780011 238.805001,52.8883314 238.595,53.285 C238.384999,53.6816687 238.28,54.1319975 238.28,54.636 C238.28,55.1493359 238.384999,55.6066647 238.595,56.008 C238.805001,56.4093353 239.098998,56.7196656 239.477,56.939 C239.855002,57.1583344 240.286664,57.268 240.772,57.268 C241.248002,57.268 241.674998,57.1583344 242.053,56.939 C242.431002,56.7196656 242.724999,56.4093353 242.935,56.008 C243.145001,55.6066647 243.25,55.1493359 243.25,54.636 C243.25,54.1319975 243.145001,53.6816687 242.935,53.285 C242.724999,52.8883314 242.431002,52.5780011 242.053,52.354 C241.674998,52.1299989 241.248002,52.018 240.772,52.018 C240.286664,52.018 239.855002,52.1299989 239.477,52.354 Z M252.938,50.926 L252.938,58.332 L251.622,58.332 L251.622,56.764 C251.136664,57.8186719 250.222007,58.3553332 248.878,58.374 C248.019329,58.374 247.347336,58.1196692 246.862,57.611 C246.376664,57.1023308 246.134,56.4000045 246.134,55.504 L246.134,50.926 L247.45,50.926 L247.45,55.154 C247.45,55.7793365 247.620332,56.2669983 247.961,56.617 C248.301668,56.9670018 248.770664,57.142 249.368,57.142 C250.05867,57.1326666 250.606998,56.8876691 251.013,56.407 C251.419002,55.9263309 251.622,55.3126704 251.622,54.566 L251.622,50.926 L252.938,50.926 Z M257.81,51.311 C258.258002,51.0356653 258.789997,50.8933334 259.406,50.884 L259.406,52.144 C258.649996,52.1159999 258.038669,52.3119979 257.572,52.732 C257.105331,53.1520021 256.839334,53.7166631 256.774,54.426 L256.774,58.332 L255.472,58.332 L255.472,50.926 L256.774,50.926 L256.774,52.522 C257.016668,51.9899973 257.361998,51.5863347 257.81,51.311 Z M270.452,51.36 C270.993336,51.6773349 271.413332,52.1206638 271.712,52.69 C272.010668,53.2593362 272.16,53.912663 272.16,54.65 C272.16,55.3780036 272.013001,56.0243305 271.719,56.589 C271.424999,57.1536695 271.009669,57.5923318 270.473,57.905 C269.936331,58.2176682 269.32267,58.374 268.632,58.374 C268.006664,58.374 267.456002,58.2433346 266.98,57.982 C266.503998,57.7206654 266.130668,57.3473358 265.86,56.862 L265.86,61.048 L264.558,61.048 L264.558,50.926 L265.86,50.926 L265.86,52.396 C266.130668,51.9106642 266.501664,51.5373346 266.973,51.276 C267.444336,51.0146654 267.987997,50.884 268.604,50.884 C269.29467,50.884 269.910664,51.0426651 270.452,51.36 Z M269.633,56.904 C270.011002,56.6799989 270.304999,56.3673353 270.515,55.966 C270.725001,55.5646647 270.83,55.1120025 270.83,54.608 C270.83,54.1133309 270.722668,53.6653353 270.508,53.264 C270.293332,52.8626647 269.999335,52.5500011 269.626,52.326 C269.252665,52.1019989 268.828002,51.99 268.352,51.99 C267.875998,51.99 267.449002,52.1019989 267.071,52.326 C266.692998,52.5500011 266.396668,52.8626647 266.182,53.264 C265.967332,53.6653353 265.86,54.1133309 265.86,54.608 C265.86,55.1213359 265.967332,55.5763314 266.182,55.973 C266.396668,56.3696687 266.692998,56.6799989 267.071,56.904 C267.449002,57.1280011 267.875998,57.24 268.352,57.24 C268.828002,57.24 269.254998,57.1280011 269.633,56.904 Z M279.552,51.899 C280.140003,52.5756701 280.434,53.515994 280.434,54.72 C280.434,54.9066676 280.429333,55.0466662 280.42,55.14 L274.568,55.14 C274.670667,55.80267 274.948331,56.329998 275.401,56.722 C275.853669,57.114002 276.41133,57.31 277.074,57.31 C277.512669,57.31 277.920998,57.2306675 278.299,57.072 C278.677002,56.9133325 279.005999,56.6893348 279.286,56.4 L280,57.142 C279.635998,57.534002 279.197336,57.8373323 278.684,58.052 C278.170664,58.2666677 277.601336,58.374 276.976,58.374 C276.247996,58.374 275.601669,58.2176682 275.037,57.905 C274.472331,57.5923318 274.033668,57.1513362 273.721,56.582 C273.408332,56.0126638 273.252,55.3640036 273.252,54.636 C273.252,53.9079964 273.408332,53.2616695 273.721,52.697 C274.033668,52.1323305 274.469997,51.6890016 275.03,51.367 C275.590003,51.0449984 276.22933,50.884 276.948,50.884 C278.096006,50.884 278.963997,51.22233 279.552,51.899 Z M279.258,54.132 C279.220666,53.4599966 278.996669,52.9303353 278.586,52.543 C278.175331,52.1556647 277.634003,51.962 276.962,51.962 C276.308663,51.962 275.765002,52.157998 275.331,52.55 C274.896998,52.942002 274.638,53.46933 274.554,54.132 L279.258,54.132 Z M284.55,51.311 C284.998002,51.0356653 285.529997,50.8933334 286.146,50.884 L286.146,52.144 C285.389996,52.1159999 284.778669,52.3119979 284.312,52.732 C283.845331,53.1520021 283.579334,53.7166631 283.514,54.426 L283.514,58.332 L282.212,58.332 L282.212,50.926 L283.514,50.926 L283.514,52.522 C283.756668,51.9899973 284.101998,51.5863347 284.55,51.311 Z M290.591,52.116 C290.222331,52.0039994 289.870002,51.948 289.534,51.948 C289.141998,51.948 288.827001,52.0203326 288.589,52.165 C288.350999,52.3096674 288.232,52.5313318 288.232,52.83 C288.232,53.1286682 288.364999,53.3549992 288.631,53.509 C288.897001,53.6630008 289.300664,53.8193325 289.842,53.978 C290.355336,54.1273341 290.775332,54.2766659 291.102,54.426 C291.428668,54.5753341 291.706332,54.7946652 291.935,55.084 C292.163668,55.3733348 292.278,55.7559976 292.278,56.232 C292.278,56.9320035 292.014336,57.4639982 291.487,57.828 C290.959664,58.1920018 290.304004,58.374 289.52,58.374 C288.969331,58.374 288.435003,58.2853342 287.917,58.108 C287.398997,57.9306658 286.962668,57.6786683 286.608,57.352 L287.098,56.4 C287.406002,56.6800014 287.786331,56.9039992 288.239,57.072 C288.691669,57.2400008 289.132665,57.324 289.562,57.324 C289.991335,57.324 290.336665,57.2446675 290.598,57.086 C290.859335,56.9273325 290.99,56.6846683 290.99,56.358 C290.99,56.0219983 290.852335,55.7700008 290.577,55.602 C290.301665,55.4339992 289.884003,55.2660008 289.324,55.098 C288.829331,54.9579993 288.425668,54.8156674 288.113,54.671 C287.800332,54.5263326 287.534334,54.3140014 287.315,54.034 C287.095666,53.7539986 286.986,53.3900022 286.986,52.942 C286.986,52.2513299 287.237997,51.7333351 287.742,51.388 C288.246003,51.0426649 288.875996,50.87 289.632,50.87 C290.080002,50.87 290.520998,50.9329994 290.955,51.059 C291.389002,51.1850006 291.764665,51.3553323 292.082,51.57 L291.606,52.564 C291.297998,52.3773324 290.959669,52.2280006 290.591,52.116 Z M299.047,51.36 C299.621003,51.6773349 300.068998,52.1183305 300.391,52.683 C300.713002,53.2476695 300.874,53.8939964 300.874,54.622 C300.874,55.3500036 300.713002,55.9986638 300.391,56.568 C300.068998,57.1373362 299.621003,57.5806651 299.047,57.898 C298.472997,58.2153349 297.817337,58.374 297.08,58.374 C296.33333,58.374 295.673003,58.2153349 295.099,57.898 C294.524997,57.5806651 294.077002,57.1396695 293.755,56.575 C293.432998,56.0103305 293.272,55.359337 293.272,54.622 C293.272,53.8939964 293.432998,53.2476695 293.755,52.683 C294.077002,52.1183305 294.524997,51.6773349 295.099,51.36 C295.673003,51.0426651 296.33333,50.884 297.08,50.884 C297.817337,50.884 298.472997,51.0426651 299.047,51.36 Z M295.785,52.354 C295.406998,52.5780011 295.113001,52.8883314 294.903,53.285 C294.692999,53.6816687 294.588,54.1319975 294.588,54.636 C294.588,55.1493359 294.692999,55.6066647 294.903,56.008 C295.113001,56.4093353 295.406998,56.7196656 295.785,56.939 C296.163002,57.1583344 296.594664,57.268 297.08,57.268 C297.556002,57.268 297.982998,57.1583344 298.361,56.939 C298.739002,56.7196656 299.032999,56.4093353 299.243,56.008 C299.453001,55.6066647 299.558,55.1493359 299.558,54.636 C299.558,54.1319975 299.453001,53.6816687 299.243,53.285 C299.032999,52.8883314 298.739002,52.5780011 298.361,52.354 C297.982998,52.1299989 297.556002,52.018 297.08,52.018 C296.594664,52.018 296.163002,52.1299989 295.785,52.354 Z M308.854,51.647 C309.348669,52.1556692 309.596,52.8579955 309.596,53.754 L309.596,58.332 L308.294,58.332 L308.294,54.104 C308.294,53.4786635 308.119002,52.9910018 307.769,52.641 C307.418998,52.2909983 306.936003,52.116 306.32,52.116 C305.65733,52.1253334 305.118335,52.3376646 304.703,52.753 C304.287665,53.1683354 304.052,53.70733 303.996,54.37 L303.996,58.332 L302.694,58.332 L302.694,50.926 L303.996,50.926 L303.996,52.494 C304.490669,51.4393281 305.42866,50.9026668 306.81,50.884 C307.678004,50.884 308.359331,51.1383308 308.854,51.647 Z M316.442,58.332 L316.442,57.296 C315.891331,58.0240036 315.028006,58.388 313.852,58.388 C313.338664,58.388 312.888335,58.290001 312.501,58.094 C312.113665,57.897999 311.815001,57.6273351 311.605,57.282 C311.394999,56.9366649 311.29,56.5493355 311.29,56.12 C311.29,55.45733 311.534998,54.9323353 312.025,54.545 C312.515002,54.1576647 313.198662,53.9593334 314.076,53.95 L316.428,53.95 L316.428,53.6 C316.428,53.0773307 316.267002,52.6736681 315.945,52.389 C315.622998,52.1043319 315.154003,51.962 314.538,51.962 C313.79133,51.962 313.030671,52.2279973 312.256,52.76 L311.71,51.864 C312.242003,51.5186649 312.734331,51.2690008 313.187,51.115 C313.639669,50.9609992 314.178664,50.884 314.804,50.884 C315.728005,50.884 316.441997,51.1103311 316.946,51.563 C317.450003,52.0156689 317.706667,52.6479959 317.716,53.46 L317.73,58.332 L316.442,58.332 Z M315.665,56.869 C316.089669,56.5749985 316.344,56.1853358 316.428,55.7 L316.428,54.958 L314.258,54.958 C313.669997,54.958 313.233668,55.0466658 312.949,55.224 C312.664332,55.4013342 312.522,55.6813314 312.522,56.064 C312.522,56.4466686 312.666665,56.7499989 312.956,56.974 C313.245335,57.1980011 313.632664,57.31 314.118,57.31 C314.72467,57.31 315.240331,57.1630015 315.665,56.869 Z M320.124,47.944 L321.426,47.944 L321.426,58.332 L320.124,58.332 L320.124,47.944 Z M333.872,51.647 C334.366669,52.1556692 334.614,52.8579955 334.614,53.754 L334.614,58.332 L333.312,58.332 L333.312,54.104 C333.312,53.4786635 333.137002,52.9910018 332.787,52.641 C332.436998,52.2909983 331.954003,52.116 331.338,52.116 C330.67533,52.1253334 330.136335,52.3376646 329.721,52.753 C329.305665,53.1683354 329.07,53.70733 329.014,54.37 L329.014,58.332 L327.712,58.332 L327.712,50.926 L329.014,50.926 L329.014,52.494 C329.508669,51.4393281 330.44666,50.9026668 331.828,50.884 C332.696004,50.884 333.377331,51.1383308 333.872,51.647 Z M342.51,51.899 C343.098003,52.5756701 343.392,53.515994 343.392,54.72 C343.392,54.9066676 343.387333,55.0466662 343.378,55.14 L337.526,55.14 C337.628667,55.80267 337.906331,56.329998 338.359,56.722 C338.811669,57.114002 339.36933,57.31 340.032,57.31 C340.470669,57.31 340.878998,57.2306675 341.257,57.072 C341.635002,56.9133325 341.963999,56.6893348 342.244,56.4 L342.958,57.142 C342.593998,57.534002 342.155336,57.8373323 341.642,58.052 C341.128664,58.2666677 340.559336,58.374 339.934,58.374 C339.205996,58.374 338.559669,58.2176682 337.995,57.905 C337.430331,57.5923318 336.991668,57.1513362 336.679,56.582 C336.366332,56.0126638 336.21,55.3640036 336.21,54.636 C336.21,53.9079964 336.366332,53.2616695 336.679,52.697 C336.991668,52.1323305 337.427997,51.6890016 337.988,51.367 C338.548003,51.0449984 339.18733,50.884 339.906,50.884 C341.054006,50.884 341.921997,51.22233 342.51,51.899 Z M342.216,54.132 C342.178666,53.4599966 341.954669,52.9303353 341.544,52.543 C341.133331,52.1556647 340.592003,51.962 339.92,51.962 C339.266663,51.962 338.723002,52.157998 338.289,52.55 C337.854998,52.942002 337.596,53.46933 337.512,54.132 L342.216,54.132 Z M350.742,51.899 C351.330003,52.5756701 351.624,53.515994 351.624,54.72 C351.624,54.9066676 351.619333,55.0466662 351.61,55.14 L345.758,55.14 C345.860667,55.80267 346.138331,56.329998 346.591,56.722 C347.043669,57.114002 347.60133,57.31 348.264,57.31 C348.702669,57.31 349.110998,57.2306675 349.489,57.072 C349.867002,56.9133325 350.195999,56.6893348 350.476,56.4 L351.19,57.142 C350.825998,57.534002 350.387336,57.8373323 349.874,58.052 C349.360664,58.2666677 348.791336,58.374 348.166,58.374 C347.437996,58.374 346.791669,58.2176682 346.227,57.905 C345.662331,57.5923318 345.223668,57.1513362 344.911,56.582 C344.598332,56.0126638 344.442,55.3640036 344.442,54.636 C344.442,53.9079964 344.598332,53.2616695 344.911,52.697 C345.223668,52.1323305 345.659997,51.6890016 346.22,51.367 C346.780003,51.0449984 347.41933,50.884 348.138,50.884 C349.286006,50.884 350.153997,51.22233 350.742,51.899 Z M350.448,54.132 C350.410666,53.4599966 350.186669,52.9303353 349.776,52.543 C349.365331,52.1556647 348.824003,51.962 348.152,51.962 C347.498663,51.962 346.955002,52.157998 346.521,52.55 C346.086998,52.942002 345.828,53.46933 345.744,54.132 L350.448,54.132 Z M360.304,47.944 L360.304,58.332 L359.002,58.332 L359.002,56.862 C358.721999,57.3566691 358.346336,57.7369987 357.875,58.003 C357.403664,58.2690013 356.855336,58.402 356.23,58.402 C355.529997,58.402 354.911669,58.2410016 354.375,57.919 C353.838331,57.5969984 353.420668,57.1490029 353.122,56.575 C352.823332,56.0009971 352.674,55.345337 352.674,54.608 C352.674,53.8799964 352.823332,53.2336695 353.122,52.669 C353.420668,52.1043305 353.838331,51.6633349 354.375,51.346 C354.911669,51.0286651 355.52533,50.87 356.216,50.87 C356.85067,50.87 357.405998,51.0006654 357.882,51.262 C358.358002,51.5233346 358.731332,51.9013309 359.002,52.396 L359.002,47.944 L360.304,47.944 Z M357.791,56.946 C358.169002,56.7219989 358.465332,56.4093353 358.68,56.008 C358.894668,55.6066647 359.002,55.1540025 359.002,54.65 C359.002,54.1366641 358.894668,53.6793353 358.68,53.278 C358.465332,52.8766647 358.169002,52.5640011 357.791,52.34 C357.412998,52.1159989 356.981336,52.004 356.496,52.004 C356.010664,52.004 355.579002,52.1183322 355.201,52.347 C354.822998,52.5756678 354.526668,52.8906647 354.312,53.292 C354.097332,53.6933353 353.99,54.1459975 353.99,54.65 C353.99,55.1540025 354.097332,55.6066647 354.312,56.008 C354.526668,56.4093353 354.822998,56.7219989 355.201,56.946 C355.579002,57.1700011 356.010664,57.282 356.496,57.282 C356.981336,57.282 357.412998,57.1700011 357.791,56.946 Z M365.953,52.116 C365.584331,52.0039994 365.232002,51.948 364.896,51.948 C364.503998,51.948 364.189001,52.0203326 363.951,52.165 C363.712999,52.3096674 363.594,52.5313318 363.594,52.83 C363.594,53.1286682 363.726999,53.3549992 363.993,53.509 C364.259001,53.6630008 364.662664,53.8193325 365.204,53.978 C365.717336,54.1273341 366.137332,54.2766659 366.464,54.426 C366.790668,54.5753341 367.068332,54.7946652 367.297,55.084 C367.525668,55.3733348 367.64,55.7559976 367.64,56.232 C367.64,56.9320035 367.376336,57.4639982 366.849,57.828 C366.321664,58.1920018 365.666004,58.374 364.882,58.374 C364.331331,58.374 363.797003,58.2853342 363.279,58.108 C362.760997,57.9306658 362.324668,57.6786683 361.97,57.352 L362.46,56.4 C362.768002,56.6800014 363.148331,56.9039992 363.601,57.072 C364.053669,57.2400008 364.494665,57.324 364.924,57.324 C365.353335,57.324 365.698665,57.2446675 365.96,57.086 C366.221335,56.9273325 366.352,56.6846683 366.352,56.358 C366.352,56.0219983 366.214335,55.7700008 365.939,55.602 C365.663665,55.4339992 365.246003,55.2660008 364.686,55.098 C364.191331,54.9579993 363.787668,54.8156674 363.475,54.671 C363.162332,54.5263326 362.896334,54.3140014 362.677,54.034 C362.457666,53.7539986 362.348,53.3900022 362.348,52.942 C362.348,52.2513299 362.599997,51.7333351 363.104,51.388 C363.608003,51.0426649 364.237996,50.87 364.994,50.87 C365.442002,50.87 365.882998,50.9329994 366.317,51.059 C366.751002,51.1850006 367.126665,51.3553323 367.444,51.57 L366.968,52.564 C366.659998,52.3773324 366.321669,52.2280006 365.953,52.116 Z M370.083,57.072 C370.227667,57.2213341 370.3,57.4126655 370.3,57.646 C370.3,57.8793345 370.227667,58.0729992 370.083,58.227 C369.938333,58.3810008 369.758668,58.458 369.544,58.458 C369.329332,58.458 369.147334,58.3810008 368.998,58.227 C368.848666,58.0729992 368.774,57.8793345 368.774,57.646 C368.774,57.4126655 368.848666,57.2213341 368.998,57.072 C369.147334,56.9226659 369.329332,56.848 369.544,56.848 C369.758668,56.848 369.938333,56.9226659 370.083,57.072 Z" id="Custom-created-icons-Copy"></path></g></g></g></g></svg> 