<svg xmlns="http://www.w3.org/2000/svg" width="1642" height="120" viewBox="0 0 1642 120" fill="none"><path d="M0.64 117V2.99999H57.488C94.12 2.99999 118.44 25.8 118.44 60C118.44 94.2 94.12 117 57.488 117H0.64ZM24.96 97.24H56.88C79.984 97.24 94.12 83.104 94.12 60.608C94.12 37.808 79.68 22.76 56.88 22.76H24.96V97.24ZM135.867 117V2.99999H210.803C237.555 2.99999 252.451 17.288 252.451 37.504C252.451 56.2 238.923 68.968 216.275 70.032L254.123 117H224.331L189.675 72.16H160.187V117H135.867ZM160.187 52.4H206.699C221.899 52.4 228.131 47.992 228.131 37.656C228.131 27.168 221.443 22.76 205.635 22.76H160.187V52.4Z" fill="#F2884F"></path><path d="M305.347 31.728C305.499 10.904 322.979 0.263999 359.611 0.263999C379.979 0.263999 397.459 3.60799 409.771 7.10399L411.139 28.384C397.459 23.672 380.131 19.72 360.067 19.72C338.027 19.72 328.907 24.128 328.907 32.184C328.907 56.048 416.611 36.136 416.611 84.472C416.611 107.12 397.915 119.736 363.259 119.736C342.435 119.736 322.675 114.872 306.715 107.272L305.195 84.016C325.107 93.44 342.435 99.216 363.411 99.216C383.323 99.216 392.595 93.744 392.595 84.928C392.595 58.632 304.891 79.76 305.347 31.728ZM433.038 117V2.99999H535.638V22.76H457.358V49.512H527.43V68.664H457.358V97.24H536.854V117H433.038ZM554.312 117V2.99999H629.248C656 2.99999 670.896 17.288 670.896 37.504C670.896 56.2 657.368 68.968 634.72 70.032L672.568 117H642.776L608.12 72.16H578.632V117H554.312ZM578.632 52.4H625.144C640.344 52.4 646.576 47.992 646.576 37.656C646.576 27.168 639.888 22.76 624.08 22.76H578.632V52.4ZM703.325 117H676.725L735.093 2.99999H760.325L819.149 117H792.093L779.021 89.64H716.397L703.325 117ZM725.517 70.64H769.901L747.709 24.128L725.517 70.64ZM832.187 117V2.99999H856.507V49.664H928.251V2.99999H952.571V117H928.251V69.424H856.507V117H832.187ZM1009.53 31.728C1009.69 10.904 1027.17 0.263999 1063.8 0.263999C1084.17 0.263999 1101.65 3.60799 1113.96 7.10399L1115.33 28.384C1101.65 23.672 1084.32 19.72 1064.25 19.72C1042.21 19.72 1033.09 24.128 1033.09 32.184C1033.09 56.048 1120.8 36.136 1120.8 84.472C1120.8 107.12 1102.1 119.736 1067.45 119.736C1046.62 119.736 1026.86 114.872 1010.9 107.272L1009.38 84.016C1029.29 93.44 1046.62 99.216 1067.6 99.216C1087.51 99.216 1096.78 93.744 1096.78 84.928C1096.78 58.632 1009.08 79.76 1009.53 31.728ZM1137.23 117V2.99999H1161.55V49.664H1233.29V2.99999H1257.61V117H1233.29V69.424H1161.55V117H1137.23ZM1297.08 117H1270.48L1328.84 2.99999H1354.08L1412.9 117H1385.84L1372.77 89.64H1310.15L1297.08 117ZM1319.27 70.64H1363.65L1341.46 24.128L1319.27 70.64ZM1425.94 117V2.99999H1450.26L1525.04 85.992V2.99999H1549.36V117H1525.04L1450.26 34.008V117H1425.94ZM1570.66 117V2.99999H1594.98V117H1570.66ZM1615.78 92.68H1641.62V117H1615.78V92.68Z" fill="#010101"></path></svg>