<svg xmlns="http://www.w3.org/2000/svg" width="1476" height="64" viewBox="0 0 1476 64"><path d="M12.9 62V36.96h37.76V62h12.8V2h-12.8v24.56H12.9V2H.1v60h12.8zm112.96 0V51.44h-37.6c22.8-5.6 36.48-17.04 36.48-31.84C124.74 7.2 114.66.16 98.1.16c-7.76 0-15.92 1.2-23.2 4.08v10.08c6.64-2.72 14.8-3.84 21.28-3.84 10.24 0 16.32 3.44 16.32 10.56 0 8.72-7.76 14.72-39.44 29.12V62h52.8zm43.44 1.44c21.76 0 35.6-12.4 35.6-31.44 0-18.96-13.84-31.36-35.6-31.36S133.7 13.04 133.7 32c0 19.04 13.84 31.44 35.6 31.44zm0-10.56c-13.84 0-22.8-8.16-22.8-20.88 0-12.72 8.96-20.96 22.8-20.96s22.8 8.24 22.8 20.96-8.96 20.88-22.8 20.88zm65.72-2.8c.5-2.31 1.31-4.04 2.46-5.17a5.46 5.46 0 013.94-1.7c.52 0 1.33.12 2.43.35 1.09.24 2.01.5 2.77.78l8.16 3.09c2.14.89 3.99 1.45 5.55 1.68.8.13 1.58.2 2.3.2 3.7 0 6.64-1.74 8.81-5.2 2.18-3.46 3.62-7.62 4.32-12.46h-6.64a13.17 13.17 0 01-2.23 4.86 4.88 4.88 0 01-4.1 2.01 15.79 15.79 0 01-5.43-1.13l-9.1-3.52a23.13 23.13 0 00-6.95-1.4c-1.44 0-2.83.3-4.18.92a11.53 11.53 0 00-3.95 3.18 18.36 18.36 0 00-3.03 5.5 39.85 39.85 0 00-1.9 8.02h6.77zM312.82 62V36.96h37.76V62h12.8V2h-12.8v24.56h-37.76V2h-12.8v60h12.8zm112.96 0V51.44h-37.6c22.8-5.6 36.48-17.04 36.48-31.84 0-12.4-10.08-19.44-26.64-19.44-7.76 0-15.92 1.2-23.2 4.08v10.08c6.64-2.72 14.8-3.84 21.28-3.84 10.24 0 16.32 3.44 16.32 10.56 0 8.72-7.76 14.72-39.44 29.12V62h52.8zm43.44 1.44c21.76 0 35.6-12.4 35.6-31.44 0-18.96-13.84-31.36-35.6-31.36s-35.6 12.4-35.6 31.36c0 19.04 13.84 31.44 35.6 31.44zm0-10.56c-13.84 0-22.8-8.16-22.8-20.88 0-12.72 8.96-20.96 22.8-20.96s22.8 8.24 22.8 20.96-8.96 20.88-22.8 20.88zm65.72-2.8c.5-2.31 1.31-4.04 2.46-5.17a5.46 5.46 0 013.94-1.7c.52 0 1.33.12 2.42.35 1.1.24 2.02.5 2.78.78l8.16 3.09c2.14.89 3.99 1.45 5.55 1.68.8.13 1.57.2 2.3.2 3.7 0 6.64-1.74 8.81-5.2 2.18-3.46 3.62-7.62 4.32-12.46h-6.64a13.17 13.17 0 01-2.23 4.86 4.88 4.88 0 01-4.1 2.01 15.79 15.79 0 01-5.43-1.13l-9.1-3.52a23.13 23.13 0 00-6.95-1.4c-1.44 0-2.83.3-4.18.92a11.53 11.53 0 00-3.95 3.18 18.36 18.36 0 00-3.03 5.5 39.85 39.85 0 00-1.9 8.02h6.77zM612.74 62V36.96h37.76V62h12.8V2h-12.8v24.56h-37.76V2h-12.8v60h12.8zm112.96 0V51.44h-37.6c22.8-5.6 36.48-17.04 36.48-31.84C724.58 7.2 714.5.16 697.94.16c-7.76 0-15.92 1.2-23.2 4.08v10.08c6.64-2.72 14.8-3.84 21.28-3.84 10.24 0 16.32 3.44 16.32 10.56 0 8.72-7.76 14.72-39.44 29.12V62h52.8zm43.44 1.44c21.76 0 35.6-12.4 35.6-31.44 0-18.96-13.84-31.36-35.6-31.36s-35.6 12.4-35.6 31.36c0 19.04 13.84 31.44 35.6 31.44zm0-10.56c-13.84 0-22.8-8.16-22.8-20.88 0-12.72 8.96-20.96 22.8-20.96s22.8 8.24 22.8 20.96-8.96 20.88-22.8 20.88zm65.71-2.8c.5-2.31 1.32-4.04 2.47-5.17a5.46 5.46 0 013.94-1.7c.52 0 1.33.12 2.42.35 1.1.24 2.02.5 2.78.78l8.16 3.09c2.14.89 3.98 1.45 5.55 1.68.8.13 1.57.2 2.3.2 3.7 0 6.64-1.74 8.81-5.2 2.17-3.46 3.61-7.62 4.32-12.46h-6.64a13.17 13.17 0 01-2.23 4.86 4.88 4.88 0 01-4.1 2.01 15.79 15.79 0 01-5.43-1.13l-9.1-3.52a23.13 23.13 0 00-6.96-1.4c-1.43 0-2.82.3-4.18.92a11.53 11.53 0 00-3.94 3.18 18.36 18.36 0 00-3.03 5.5 39.85 39.85 0 00-1.9 8.02h6.76zM912.65 62V36.96h37.77V62h12.8V2h-12.8v24.56h-37.76V2h-12.8v60h12.8zm112.97 0V51.44h-37.6c22.8-5.6 36.48-17.04 36.48-31.84 0-12.4-10.08-19.44-26.64-19.44-7.76 0-15.92 1.2-23.2 4.08v10.08c6.64-2.72 14.8-3.84 21.28-3.84 10.24 0 16.32 3.44 16.32 10.56 0 8.72-7.76 14.72-39.44 29.12V62h52.8zm43.44 1.44c21.76 0 35.6-12.4 35.6-31.44 0-18.96-13.84-31.36-35.6-31.36s-35.6 12.4-35.6 31.36c0 19.04 13.84 31.44 35.6 31.44zm0-10.56c-13.84 0-22.8-8.16-22.8-20.88 0-12.72 8.96-20.96 22.8-20.96s22.8 8.24 22.8 20.96-8.96 20.88-22.8 20.88zm65.71-2.8c.5-2.31 1.32-4.04 2.46-5.17a5.46 5.46 0 013.95-1.7c.52 0 1.33.12 2.42.35 1.1.24 2.02.5 2.78.78l8.16 3.09c2.13.89 3.98 1.45 5.55 1.68.8.13 1.57.2 2.3.2 3.7 0 6.63-1.74 8.8-5.2 2.18-3.46 3.62-7.62 4.33-12.46h-6.64a13.18 13.18 0 01-2.23 4.86 4.88 4.88 0 01-4.1 2.01 15.79 15.79 0 01-5.43-1.13l-9.1-3.52a23.13 23.13 0 00-6.96-1.4c-1.43 0-2.82.3-4.18.92a11.53 11.53 0 00-3.94 3.18 18.36 18.36 0 00-3.03 5.5 39.85 39.85 0 00-1.9 8.02h6.76zm77.8 11.92V36.96h37.77V62h12.8V2h-12.8v24.56h-37.76V2h-12.8v60h12.8zm112.97 0V51.44h-37.6c22.8-5.6 36.48-17.04 36.48-31.84 0-12.4-10.08-19.44-26.64-19.44-7.76 0-15.92 1.2-23.2 4.08v10.08c6.64-2.72 14.8-3.84 21.28-3.84 10.24 0 16.32 3.44 16.32 10.56 0 8.72-7.76 14.72-39.44 29.12V62h52.8zm43.44 1.44c21.76 0 35.6-12.4 35.6-31.44 0-18.96-13.84-31.36-35.6-31.36s-35.6 12.4-35.6 31.36c0 19.04 13.84 31.44 35.6 31.44zm0-10.56c-13.84 0-22.8-8.16-22.8-20.88 0-12.72 8.96-20.96 22.8-20.96s22.8 8.24 22.8 20.96-8.96 20.88-22.8 20.88zm65.71-2.8c.5-2.31 1.32-4.04 2.46-5.17a5.46 5.46 0 013.95-1.7c.52 0 1.33.12 2.42.35 1.1.24 2.02.5 2.77.78l8.17 3.09c2.13.89 3.98 1.45 5.54 1.68.81.13 1.58.2 2.3.2 3.7 0 6.64-1.74 8.82-5.2 2.17-3.46 3.61-7.62 4.31-12.46h-6.64a13.18 13.18 0 01-2.22 4.86 4.88 4.88 0 01-4.1 2.01 15.79 15.79 0 01-5.43-1.13l-9.1-3.52a23.13 23.13 0 00-6.96-1.4c-1.43 0-2.82.3-4.18.92a11.53 11.53 0 00-3.94 3.18 18.36 18.36 0 00-3.03 5.5 39.85 39.85 0 00-1.9 8.02h6.76z" fill="#DCD6CC" fill-rule="nonzero"></path></svg>