<svg xmlns="http://www.w3.org/2000/svg" xmlns:xlink="http://www.w3.org/1999/xlink" id="Layer_1" x="0px" y="0px" viewBox="0 0 75 17" style="enable-background:new 0 0 75 17;" xml:space="preserve">
<style type="text/css">
	.st0{fill:#FFFFFF;}
</style>
<path class="st0" d="M5,16.4c4.6,0,7.3-1.8,7.3-5.6V1H3.7v2.5h5.4v7.2c0,1.8-1.7,3-4.8,3c-1.2,0-2.4-0.2-3.6-0.5v2.6  C1.9,16.2,3.3,16.4,5,16.4z M23.4,16.4c5.4,0,8.9-3.1,8.9-7.9c0-4.7-3.5-7.8-8.9-7.8s-8.9,3.1-8.9,7.8  C14.5,13.3,17.9,16.4,23.4,16.4z M23.4,13.7c-3.5,0-5.7-2-5.7-5.2s2.2-5.2,5.7-5.2s5.7,2.1,5.7,5.2S26.8,13.7,23.4,13.7z M47.2,16  v-2.6h-9.4V1h-3.2v15H47.2z M52.6,16V1h-3.2v15H52.6z M69,16v-2.6H58.6V9.6h9.2V7.1h-9.2V3.6h10.3V1H55.4v15C55.4,16,69,16,69,16z   M74.7,16v-3.2h-3.4V16H74.7z"></path>
</svg>