<svg xmlns="http://www.w3.org/2000/svg" xmlns:xlink="http://www.w3.org/1999/xlink" width="50px" height="50px" viewBox="0 0 50 50"><title>BFAFD36B-70A2-4476-808A-ED15EBC81C78</title><g id="Page-1" stroke="none" stroke-width="1" fill="none" fill-rule="evenodd"><g id="Landingpage" transform="translate(-554.000000, -3886.000000)" fill="#020D26"><g id="Key-features" transform="translate(273.000000, 3709.000000)"><g id="Group-13" transform="translate(0.000000, 138.000000)"><g id="Group-11-Copy" transform="translate(216.000000, 0.000000)"><path d="M112.500128,39 L67.4998065,39 C66.1159889,39 65,40.1160976 65,41.5000239 L65,86.5002371 C65,87.8841634 66.1159889,89.000261 67.4998065,89.000261 L112.500128,89.000261 C113.884055,89.000261 115.000044,87.8841634 115.000044,86.5002371 L115.000044,41.5000239 C115.000044,40.1160976 113.884055,39 112.500128,39 M83.3370233,75.1051281 L78.8951329,75.1051281 L78.8951329,52.8952416 L83.3370233,52.8952416 L83.3370233,75.1051281 Z M101.116106,75.1051281 L87.7790223,75.1051281 L87.7790223,70.663129 L101.116106,70.663129 L101.116106,75.1051281 Z M101.116106,66.2210213 L87.7790223,66.2210213 L87.7790223,61.779131 L101.116106,61.779131 L101.116106,66.2210213 Z M101.116106,57.3260449 L87.7790223,57.3260449 L87.7790223,52.8841546 L101.116106,52.8841546 L101.116106,57.3260449 Z" id="Shape"></path></g></g></g></g></g></svg>