<svg xmlns="http://www.w3.org/2000/svg" xmlns:xlink="http://www.w3.org/1999/xlink" width="407px" height="367px" viewBox="0 0 407 367"><title>Star_Gifts_label (1)</title><defs><polygon id="path-1" points="3.2231264 10.3337037 396.836832 3.4631509 403.101292 362.353804 3.10129181 362.353804"></polygon></defs><g id="Home-1" stroke="none" stroke-width="1" fill="none" fill-rule="evenodd"><g id="Star_Gifts_label-(1)" transform="translate(0.696125, 0.719877)"><mask id="mask-2" fill="white"><use xlink:href="#path-1"></use></mask><g id="Rectangle" transform="translate(203.101292, 182.908478) rotate(1.000000) translate(-203.101292, -182.908478) "></g><g id="Group-48" mask="url(#mask-2)"><g transform="translate(60.101292, 10.463151)"><path d="M222.577315,183.01878 C266.868519,181.418966 308.516667,177.819383 346,172.539995 C310.118519,167.50058 270.392593,163.980988 228.263889,162.301182 C267.028704,145.583121 302.75,128.065152 334.466667,110.467192 C297.543981,119.0262 257.3375,130.544864 215.529167,145.023186 C245.724074,112.706933 272.635185,80.790633 295.381481,50.5541387 C266.387963,72.311616 235.792593,97.8286575 204.876852,126.305356 C220.414815,87.189891 233.309722,49.5942499 243.161111,14.7982843 C223.137963,46.8745653 202.874537,83.3503362 183.49213,123.105727 C181.890278,78.9508463 178.286111,37.4356596 173,0 C167.954167,35.8358451 164.35,75.4312543 162.748148,117.426385 C146.008796,78.7908648 128.468519,43.1150012 110.768056,11.5186645 C119.337963,48.3143983 130.951389,88.3897519 145.368056,130.144911 C112.930556,99.9884071 80.8935185,73.191514 50.6185185,50.4741479 C72.4037037,79.3507999 97.9532407,109.907257 126.626389,140.783677 C87.3810185,125.265476 49.6574074,112.46696 14.8171296,102.54811 C46.9342593,122.545792 83.5365741,142.703455 123.422685,161.98122 C79.1314815,163.501043 37.4833333,167.180617 0,172.460005 C35.8814815,177.49942 75.6074074,181.019012 117.736111,182.698818 C78.9712963,199.416879 43.25,216.934848 11.5333333,234.532808 C48.4560185,225.9738 88.6625,214.455136 130.470833,199.976814 C100.275926,232.293067 73.3648148,264.209367 50.6185185,294.445861 C79.612037,272.688384 110.207407,247.171342 141.123148,218.694644 C125.585185,257.810109 112.690278,295.40575 102.838889,330.201716 C122.862037,298.125435 143.125463,261.649664 162.50787,221.894273 C164.109722,266.049154 167.713889,307.56434 173,345 C178.045833,309.164155 181.65,269.568746 183.251852,227.573615 C199.991204,266.209135 217.611574,301.884999 235.231944,333.481335 C226.662037,296.685602 215.048611,256.610248 200.631944,214.855089 C233.069444,245.011593 265.106481,271.808486 295.381481,294.525852 C273.596296,265.6492 248.046759,235.092743 219.373611,204.216323 C258.618981,219.734524 296.342593,232.53304 331.18287,242.45189 C299.065741,222.454208 262.383333,202.296545 222.577315,183.01878 L222.577315,183.01878 Z" id="Path-3" stroke="#FF6A00" stroke-width="0.896"></path><g id="Group" stroke="none" stroke-width="1" fill-rule="evenodd" transform="translate(179.000000, 168.890670)"><path d="M3.60416667,7.51912822 C2.40277778,7.51912822 1.52175926,7.19916531 0.881018519,6.55923951 C0.240277778,5.9193137 0,5.03941572 0,3.91954556 C0,3.1196383 0.160185185,2.4797125 0.400462963,1.83978669 C0.640740741,1.27985161 1.0412037,0.799907257 1.60185185,0.479944354 C2.1625,0.159981451 2.80324074,0 3.60416667,0 C4.00462963,0 4.40509259,0 4.72546296,0.0799907257 C5.04583333,0.159981451 5.3662037,0.239972177 5.68657407,0.319962903 L5.68657407,1.35984234 C5.04583333,1.11987016 4.40509259,1.03987943 3.68425926,1.03987943 C2.80324074,1.03987943 2.08240741,1.27985161 1.76203704,1.75979597 C1.36157407,2.23974032 1.20138889,2.95965685 1.20138889,3.83955483 C1.20138889,4.63946209 1.36157407,5.2793879 1.76203704,5.75933225 C2.1625,6.15928588 2.72314815,6.39925806 3.60416667,6.39925806 C4.24490741,6.39925806 4.80555556,6.31926733 5.12592593,6.15928588 L5.12592593,4.15951774 L3.2837963,4.15951774 L3.2837963,3.35961048 L6.16712963,3.35961048 L6.16712963,6.79921169 C5.92685185,6.95919314 5.60648148,7.11917459 5.20601852,7.19916531 C4.80555556,7.27915604 4.24490741,7.51912822 3.60416667,7.51912822 Z" id="Path" fill="#000000" fill-rule="nonzero"></path><polygon id="Path" fill="#000000" fill-rule="nonzero" points="7.44861111 7.35914677 7.44861111 0.159981451 8.65 0.159981451 8.65 7.35914677"></polygon><polygon id="Path" fill="#000000" fill-rule="nonzero" points="10.0115741 7.35914677 10.0115741 0.159981451 14.8972222 0.159981451 14.8972222 1.11987016 11.212963 1.11987016 11.212963 3.27961975 14.4967593 3.27961975 14.4967593 4.23950846 11.212963 4.23950846 11.212963 7.35914677 10.0115741 7.35914677"></polygon><polygon id="Path" fill="#000000" fill-rule="nonzero" points="17.7805556 7.35914677 17.7805556 1.11987016 15.4578704 1.11987016 15.4578704 0.159981451 21.3046296 0.159981451 21.3046296 1.11987016 18.9819444 1.11987016 18.9819444 7.35914677"></polygon><path d="M28.2726852,7.51912822 C27.0712963,7.51912822 26.1902778,7.19916531 25.549537,6.55923951 C24.9087963,5.9193137 24.6685185,5.03941572 24.6685185,3.91954556 C24.6685185,3.1196383 24.8287037,2.4797125 25.0689815,1.83978669 C25.3092593,1.27985161 25.7097222,0.799907257 26.2703704,0.479944354 C26.8310185,0.159981451 27.4717593,0 28.2726852,0 C28.6731481,0 29.0736111,0 29.3939815,0.0799907257 C29.7143519,0.159981451 30.0347222,0.239972177 30.3550926,0.319962903 L30.3550926,1.35984234 C30.0347222,1.27985161 29.7143519,1.11987016 29.3939815,1.11987016 C29.0736111,1.03987943 28.6731481,1.03987943 28.3527778,1.03987943 C27.4717593,1.03987943 26.8310185,1.27985161 26.4305556,1.75979597 C26.0300926,2.23974032 25.8699074,2.95965685 25.8699074,3.83955483 C25.8699074,4.71945282 26.1101852,5.35937862 26.5106481,5.75933225 C26.9111111,6.15928588 27.5518519,6.39925806 28.3527778,6.39925806 C28.6731481,6.39925806 29.0736111,6.39925806 29.3939815,6.31926733 C29.7143519,6.23927661 30.0347222,6.15928588 30.3550926,6.07929515 L30.3550926,7.11917459 C30.0347222,7.19916531 29.7143519,7.27915604 29.3939815,7.35914677 C29.0736111,7.43913749 28.6731481,7.51912822 28.2726852,7.51912822 Z" id="Path" fill="#000000" fill-rule="nonzero"></path><path d="M30.9157407,7.35914677 L33.6388889,0.159981451 L35.000463,0.159981451 L37.7236111,7.35914677 L36.4421296,7.35914677 L35.7212963,5.51936007 L32.837963,5.51936007 L32.1171296,7.35914677 L30.9157407,7.35914677 Z M33.0782407,4.55947137 L35.5611111,4.55947137 L34.2796296,1.27985161 L33.0782407,4.55947137 Z" id="Shape" fill="#000000" fill-rule="nonzero"></path><path d="M39.0050926,7.35914677 L39.0050926,0.159981451 L42.2888889,0.159981451 C43.0898148,0.159981451 43.650463,0.399953629 44.0509259,0.799907257 C44.4513889,1.19986089 44.6115741,1.75979597 44.6115741,2.4797125 C44.6115741,2.95965685 44.4513889,3.43960121 44.2111111,3.75956411 C43.9708333,4.07952701 43.5703704,4.39948991 43.0898148,4.47948064 C43.25,4.55947137 43.3300926,4.71945282 43.4101852,4.79944354 C43.4902778,4.87943427 43.5703704,5.03941572 43.650463,5.2793879 L44.5314815,7.35914677 L43.25,7.35914677 L42.3689815,5.35937862 C42.2888889,5.19939717 42.2087963,5.03941572 42.0486111,4.95942499 C41.8884259,4.87943427 41.7282407,4.79944354 41.487963,4.79944354 L40.1263889,4.79944354 L40.1263889,7.35914677 L39.0050926,7.35914677 L39.0050926,7.35914677 Z M40.2064815,3.83955483 L41.9685185,3.83955483 C42.3689815,3.83955483 42.7694444,3.75956411 43.0097222,3.51959193 C43.25,3.27961975 43.4101852,2.95965685 43.4101852,2.4797125 C43.4101852,1.59981451 43.0097222,1.11987016 42.1287037,1.11987016 L40.2064815,1.11987016 L40.2064815,3.83955483 Z" id="Shape" fill="#000000" fill-rule="nonzero"></path><path d="M45.812963,7.35914677 L45.812963,0.159981451 L48.7763889,0.159981451 C49.8175926,0.159981451 50.6185185,0.479944354 51.1791667,1.03987943 C51.7398148,1.59981451 51.9800926,2.55970322 51.9800926,3.83955483 C51.9800926,5.03941572 51.7398148,5.99930443 51.1791667,6.55923951 C50.6185185,7.11917459 49.8976852,7.43913749 48.7763889,7.43913749 L45.812963,7.43913749 L45.812963,7.35914677 Z M47.0143519,6.47924878 L48.5361111,6.47924878 C49.0166667,6.47924878 49.4171296,6.39925806 49.7375,6.23927661 C50.0578704,6.07929515 50.2981481,5.83932298 50.4583333,5.43936935 C50.6185185,5.03941572 50.6986111,4.47948064 50.6986111,3.83955483 C50.6986111,3.19962903 50.6185185,2.55970322 50.4583333,2.15974959 C50.2981481,1.75979597 50.0578704,1.51982379 49.8175926,1.35984234 C49.4972222,1.19986089 49.0967593,1.11987016 48.6162037,1.11987016 L47.0944444,1.11987016 L47.0944444,6.47924878 L47.0143519,6.47924878 Z" id="Shape" fill="#000000" fill-rule="nonzero"></path></g></g></g></g></g></svg>