<svg xmlns="http://www.w3.org/2000/svg" xmlns:xlink="http://www.w3.org/1999/xlink" width="48px" height="48px" viewBox="0 0 48 48"><title>DF27BCE8-B79B-4D85-B3F5-41D9126B8128</title><g id="Page-1" stroke="none" stroke-width="1" fill="none" fill-rule="evenodd"><g id="Landingpage" transform="translate(-770.000000, -3888.000000)" fill="#020D26"><g id="Key-features" transform="translate(273.000000, 3709.000000)"><g id="Group-13" transform="translate(0.000000, 138.000000)"><g id="Group-11-Copy-2" transform="translate(428.000000, 0.000000)"><path d="M111.934349,54.6474921 C113.618667,57.7207619 114.577143,61.247619 114.577143,64.9992381 C114.577143,72.959873 110.262984,79.9099683 103.848,83.6501587 L110.438476,64.5949206 C111.66946,61.5165714 112.079365,59.0551111 112.079365,56.8664127 C112.079365,56.072 112.027048,55.3347302 111.934349,54.6474921 L111.934349,54.6474921 Z M95.9734603,54.8824127 C97.2725079,54.8140952 98.4430476,54.6774603 98.4430476,54.6774603 C99.6057143,54.5398095 99.4685714,52.8311111 98.3053968,52.8991746 C98.3053968,52.8991746 94.8102857,53.1734603 92.5540317,53.1734603 C90.4339048,53.1734603 86.8712381,52.8991746 86.8712381,52.8991746 C85.7075556,52.8311111 85.5711746,54.6086349 86.7343492,54.6774603 C86.7343492,54.6774603 87.8350476,54.8140952 88.9977143,54.8824127 L92.3592381,64.0935873 L87.6364444,78.255619 L79.7791746,54.8824127 C81.0792381,54.8140952 82.2485079,54.6774603 82.2485079,54.6774603 C83.4104127,54.5398095 83.2732698,52.8311111 82.1106032,52.8991746 C82.1106032,52.8991746 78.616254,53.1734603 76.359746,53.1734603 C75.9549206,53.1734603 75.4777143,53.1635556 74.9710476,53.1473016 C78.8293333,47.2897778 85.4609524,43.4215873 92.999746,43.4215873 C98.6170159,43.4215873 103.731937,45.5693968 107.570667,49.0868571 C107.477714,49.0812698 107.387048,49.0695873 107.291302,49.0695873 C105.171683,49.0695873 103.667683,50.9159365 103.667683,52.8991746 C103.667683,54.6774603 104.693714,56.1819683 105.787302,57.96 C106.607873,59.3972063 107.566349,61.2433016 107.566349,63.9109841 C107.566349,65.7575873 106.856,67.9008254 105.924444,70.8864762 L103.771556,78.0775873 L95.9734603,54.8824127 Z M92.999746,86.5786667 C90.8816508,86.5786667 88.8374603,86.2680635 86.903746,85.6994286 L93.3786667,66.8867302 L100.010794,85.0579048 C100.054476,85.1645714 100.108063,85.2628571 100.165206,85.3553016 C97.9224127,86.1448889 95.5125079,86.5786667 92.999746,86.5786667 L92.999746,86.5786667 Z M71.4220952,64.9992381 C71.4220952,61.8708571 72.0930794,58.9012063 73.2905397,56.2177778 L83.583619,84.4189206 C76.3848889,80.9217778 71.4220952,73.5401905 71.4220952,64.9992381 L71.4220952,64.9992381 Z M92.999746,41 C79.7662222,41 69,51.7659683 69,64.9992381 C69,78.2330159 79.7662222,89.000254 92.999746,89.000254 C106.233016,89.000254 116.999746,78.2330159 116.999746,64.9992381 C116.999746,51.7659683 106.233016,41 92.999746,41 L92.999746,41 Z" id="wordpress-logo-simplified-cmyk"></path></g></g></g></g></g></svg>